<?xml version="1.0" encoding="utf-8"?>
<!-- Generator: Adobe Illustrator 25.4.1, SVG Export Plug-In . SVG Version: 6.00 Build 0)  -->
<svg version="1.1" id="レイヤー_1" xmlns="http://www.w3.org/2000/svg" xmlns:xlink="http://www.w3.org/1999/xlink" x="0px"
	 y="0px" viewBox="0 0 353.7 293.8" style="enable-background:new 0 0 353.7 293.8;" xml:space="preserve">
<style type="text/css">
	.st0{fill:#1A8BAC;}
	.st1{fill:#333333;}
	.st2{fill:#3A3A3A;}
</style>
<g id="レイヤー_4">
	<path class="st0" d="M21.2,112.4L52.5,95c1-0.4,2.1-0.6,3.2-0.8L96,95.4c2-0.2,4-0.1,5.9,0.5l4.6,1.3c5.7,1.6,9.9,6.6,10.6,12.5
		l0.9,7.9l4,7.8l8.8,0.1c4.4,0.1,8.5,2.1,11.2,5.4l1.2,1.5c2.7,3.3,3.8,7.7,3.1,11.9c-0.8,5-2.1,10.9-3.7,11.4
		c-2,0.7-17.9,6-26.8,8.9c-3.8,1.3-7,4.1-8.7,7.8l-4,8.5c-1.2,2.6-1.6,5.4-1.3,8.2c1.2,8.6,3.4,27.2,0.7,24.6
		c-3.5-3.4-13.8-5.9-23.1-5.7s-24.3-11-24.3-11l-12.3-7.6c-0.3-0.2-0.7-0.4-1-0.6l-18.7-9.6c-2.1-1.1-3.9-2.7-5.3-4.6
		c-4.6-6.5-15-21.6-13.7-23.7c1.2-1.9,5.3-18.1,7.7-28.1C13.1,118,16.6,114.1,21.2,112.4z"/>
	<path class="st1" d="M106.3,214.4c2.6-0.5,4.3-3.1,3.8-5.7l-0.1-0.3c6,17.8,19.2,26.1,41.5,26.1c11.1,0,23-2,34.2-4.2
		c1.3-0.3,2.5-0.4,3.8-0.4c4.8,0,9.4,2,12.8,5.5c11.7,11.7,11.7,37.8,11.7,38.9c-0.1,2.5,0.8,5,2.5,6.9c2.1,2,4.9,3,7.8,2.9
		c3.1,0.1,6.1-1.1,8.3-3.3c1.9-2.1,2.8-4.9,2.5-7.7c-0.1-1.3-0.2-2.5-0.2-3.8c-1-15.3-2.4-36.2,16.9-39.1c2.4-0.4,4.7-0.6,7.1-0.9
		c13.8-1.5,24.8-2.7,32.7-21.6c0.9-2.1,3.1-3.3,5.3-2.9c1.8,0.3,3.6,0.5,5.5,0.5c12.5,0,25.8-6.5,32.2-15.9c4-5.7,5.5-12.9,3.9-19.8
		c2.3-0.9,4.5-2.2,6.3-3.9c0.7-0.7,1.1-1.6,1.3-2.5l0.8,0.2c4.5,14.2,0.2,24.9-4.3,31.5c-8.2,12-24.4,20.1-40.2,20.1
		c-1.1,0-2.2,0-3.3-0.1c-10.2,21-25.5,22.6-39,24.1c-2.2,0.2-4.5,0.5-6.7,0.8c-9.7,1.5-9.7,12.4-8.6,28.8c0.1,1.3,0.2,2.6,0.2,3.9
		c0.5,5.5-1.4,10.9-5.1,15c-4,4.1-9.6,6.4-15.4,6.3c-5.5,0.1-10.8-2-14.7-5.8c-3.6-3.7-5.5-8.6-5.3-13.8c0.1-8.9-2.3-25.5-8.8-32
		c-2-2.2-5-3.1-7.8-2.4c-11.7,2.3-24.1,4.4-36,4.4c-25.1,0-41.7-9.9-49.6-29.5l0.6-1c0.8,0.5,1.8,0.8,2.7,0.8
		C105.7,214.5,106,214.5,106.3,214.4z"/>
	<path class="st1" d="M344.6,158.8c1.9,1.9,1.9,5,0,6.9c0,0,0,0,0,0c-1.8,1.7-4,3-6.3,3.9c-0.4-1.9-1-3.8-1.7-5.6
		c-0.7-1.8-0.3-3.8,1.1-5.2l0,0C339.6,156.9,342.7,156.9,344.6,158.8z"/>
	<path class="st1" d="M336.6,164c0.7,1.8,1.3,3.7,1.7,5.6c-16.5,7-52.6,6.8-82.2,5.1c-37.8-2.1-75.1,13.4-79.8,33.2
		c-0.5,2.2-2.5,3.7-4.7,3.8c-0.4,0-0.7,0-1.1-0.1c-2.6-0.6-4.2-3.2-3.6-5.8c0,0,0,0,0,0c5.8-24.9,46.1-43.1,89.7-40.7
		c52.3,2.9,76.4-1.6,81-6.3C336.3,160.2,335.9,162.2,336.6,164z"/>
	<path class="st1" d="M317.2,86c0.9,1.7,0.7,3.9-0.6,5.4c-1.5,1.7-3.5,2.9-5.6,3.6c-2.6-0.5-4.3-3.1-3.7-5.7c0,0,0-0.1,0-0.1
		c0.2-1.1,0.5-2.2,0.6-3.2c0.5-0.2,0.9-0.5,1.3-0.8c1.7-2,4.8-2.3,6.8-0.6c0,0,0,0,0,0C316.5,84.9,316.9,85.4,317.2,86z"/>
	<path class="st1" d="M348.8,117.7c5.8,14.2,8,33.2-2.1,45.6l-0.8-0.2c0.5-2.6-1.2-5.2-3.8-5.7c-1.6-0.3-3.2,0.2-4.3,1.3
		c9.1-8.9,7-25.1,2-37.3c-6.2-15.3-17.5-26.3-26.7-26.3h-0.8c-0.5,0-0.9,0-1.4-0.1c2.1-0.7,4.1-2,5.6-3.6c1.3-1.5,1.5-3.6,0.6-5.4
		l0.5-0.1C331.3,88.6,342.9,103.2,348.8,117.7z"/>
	<path class="st1" d="M311,95c-3.2,1.1-6.6,1.8-10,1.9c-1.4,0.1-2.9,0.2-4.4,0.2c-11.9,0-26.2-3.1-33.6-9.7c-2-1.7-2.3-4.8-0.6-6.8
		c1.7-2,4.8-2.3,6.8-0.6c0.1,0,0.1,0.1,0.2,0.2c8.8,7.8,32.1,8.7,38.6,5.8c-0.1,1.1-0.4,2.1-0.6,3.2C306.7,91.7,308.3,94.3,311,95
		C310.9,95,311,95,311,95z"/>
	<path class="st1" d="M285,117c2.1,1.7,2.4,4.8,0.7,6.8c-7.7,9.5-23.5,7.8-40.3,6.1c-4.6-0.5-9.3-1-13.9-1.2
		c-2.2-0.1-4.4-0.3-6.5-0.5c-10.2-0.9-14.9-0.9-17.4,2.7c-0.1-3.7-0.8-7.3-2.2-10.7c5.8-3,13.2-2.3,20.5-1.7c2,0.2,4.1,0.4,6.2,0.5
		c4.8,0.3,9.6,0.8,14.3,1.3c13.4,1.4,27.3,2.8,31.8-2.6C279.9,115.6,282.9,115.3,285,117z"/>
	<path class="st1" d="M228.7,62.5c6.3,7.6,8.9,17.8,7.7,30.4c-0.2,2.5-2.3,4.4-4.8,4.4h-0.5c-2.7-0.3-4.6-2.6-4.4-5.3
		c1-9.9-0.9-17.8-5.5-23.3c-5.8-7-15-9.2-21.7-9.8c-7.2-0.6-14.4-0.8-21.7-0.6c-13.1,0.4-26.3-0.3-39.4-1.9
		c-11.2-1.4-18.8-5.8-22.5-13.2c-3.9-7.8-2.5-17,0-24.2c4-1.6,8.1-3,12.3-4.1c-3.8,7.4-6.8,17.5-3.6,24c2.2,4.3,7.2,7,15,7.9
		c12.6,1.6,25.3,2.2,38,1.8c7.6-0.2,15.2,0,22.7,0.6C212.7,50.4,222.5,55,228.7,62.5z"/>
	<path class="st1" d="M207.6,130.9c-0.2,0.2-0.3,0.5-0.5,0.7c-1.3,2.3-4.2,3.2-6.6,1.9c-2.3-1.3-3.2-4.2-1.9-6.6
		c1.5-2.9,3.9-5.2,6.7-6.8C206.8,123.6,207.5,127.2,207.6,130.9z"/>
	<path class="st1" d="M202.9,134.1c1.8,0,3.4-1,4.3-2.5c0.1-0.3,0.3-0.5,0.5-0.7c0,1.8-0.1,3.6-0.4,5.4
		c-3.2,17.3-19.7,26.1-49.1,26.1c-23.1,0-41.3,0-49.1,14.7c-3.9,7.4-1.8,17.3,0.9,31.1v0.2l-0.1-0.2c-0.7-2.1-2.7-3.4-4.8-3.3
		c-2,0.1-3.9,0.1-5.7,0.2c-2.5-12.8-3.8-23.3,1-32.5c10.4-19.9,33.4-19.9,57.7-19.9c24,0,37.3-6.1,39.5-18.2c0.3-1.5,0.3-3,0.2-4.5
		h0.2C198.4,132.3,200.4,134.1,202.9,134.1L202.9,134.1z"/>
	<path class="st1" d="M197.9,129.9c-0.5-5.1-2.7-9.9-6.2-13.6c-7.4-7.8-19.8-11-35.1-9c-2.7,0.3-5.1-1.5-5.4-4.2
		c-0.3-2.7,1.5-5.1,4.2-5.4c18.4-2.4,33.8,1.9,43.4,11.9c2.9,3,5.2,6.6,6.7,10.5c-2.9,1.5-5.2,3.9-6.7,6.8c-0.5,0.9-0.7,2-0.6,3
		L197.9,129.9z"/>
	<path class="st1" d="M127.4,6.6c2.3,1.3,3.1,4.3,1.8,6.6c-0.3,0.6-0.6,1.1-0.9,1.7C124.1,16,120,17.4,116,19
		c1.3-3.7,2.9-7.3,4.8-10.6C122.1,6,125.1,5.2,127.4,6.6L127.4,6.6z"/>
	<path class="st1" d="M123.8,6.1C138,2,152.8,0,167.6,0c10.7,0,34.8,1.3,45.5,12.4c5.7-2.5,12-3.7,18.2-3.6
		c25.5,0,56.3,15.6,73.4,37.2c10.1,12.7,14.5,26.4,13,39.9l-0.5,0.1c-0.3-0.6-0.7-1.1-1.2-1.5c-2-1.7-5.1-1.5-6.8,0.6c0,0,0,0,0,0
		c-0.4,0.4-0.8,0.7-1.3,0.8c2-14.1-4.6-26.1-10.8-33.9c-15.1-19.1-43.4-33.5-65.8-33.5c-6.9,0-12.6,1.4-16.9,4.2
		c-2.3,1.4-5.3,0.8-6.7-1.5c0-0.1-0.1-0.1-0.1-0.2c-3.9-6.9-19.6-11.3-40-11.3c-13.3,0-26.5,1.8-39.3,5.2c0.3-0.6,0.6-1.2,0.9-1.7
		c1.3-2.3,0.5-5.3-1.8-6.6C126.3,5.9,125,5.8,123.8,6.1L123.8,6.1z"/>
	<path class="st1" d="M110,208.2l0.1,0.2l0.1,0.3c0.5,2.6-1.2,5.2-3.8,5.7c-0.3,0.1-0.7,0.1-1,0.1c-2.3,0-4.3-1.6-4.8-3.9l-0.1-0.6
		c-0.3-1.7-0.7-3.4-1-5.1c1.8,0,3.7-0.1,5.7-0.2C107.3,204.7,109.3,206.1,110,208.2z"/>
	<path class="st1" d="M103.6,58c0.2,2.7-1.8,5-4.5,5.2c0,0,0,0,0,0c-0.3,0-1.6,0.3-3.5,2.6C92,70,88.8,78.7,88.8,87.7
		c-3.2-0.1-6.4,0-9.7,0.1c0-10.5,3.4-21.5,9-28.2c3.1-3.7,6.6-5.8,10.3-6.1C101,53.3,103.4,55.3,103.6,58
		C103.6,58,103.6,58,103.6,58z"/>
	<path class="st1" d="M100.6,210.6c0.3,1.2,1,2.3,2,3l-0.6,1c-1.3,0-2.6,0.1-3.9,0.1c-27,0-45.7-8.6-55.7-25.6
		c-17.5,0.8-31.4-7.2-38.2-21.7C-2.4,153.7-1.1,136.4,7,124h1.3c0,2.7,2.2,4.8,4.9,4.8c1.4,0,2.8-0.7,3.7-1.8
		c-7.9,9.7-9.6,24.6-4,36.4s16.9,17.4,31.7,15.9c2-0.2,3.9,0.8,4.8,2.6c7.9,15.5,23.8,23.1,48.7,23.1h1.4c0.3,1.7,0.7,3.4,1,5.1
		L100.6,210.6z"/>
	<path class="st1" d="M89,91.9c0.3,2.7-1.6,5.1-4.2,5.4h-0.6c-2.5,0-4.5-1.8-4.8-4.3c-0.2-1.8-0.3-3.5-0.3-5.3
		c3.3-0.1,6.5-0.2,9.7-0.1C88.8,89.1,88.8,90.5,89,91.9z"/>
	<path class="st1" d="M84.7,97.3c2.7-0.3,4.6-2.7,4.3-5.4c0,0,0,0,0,0c-0.2-1.4-0.2-2.9-0.2-4.3c9.7,0.2,18.3,1.4,23.6,3.9
		c8.2,3.8,15,15.1,15.4,25.6c0.4,9.5-4.1,17.4-12.6,22.4c-9.7,5.6-21,7.3-31.5,7.3c-10.1,0-19.5-1.6-26.1-2.6l-2.6-0.4
		c-2.6-0.4-4.5-2.9-4-5.6c0.4-2.6,2.9-4.5,5.5-4l2.7,0.4c12.3,2,35.2,5.8,51.2-3.5c5.4-3.2,8.1-7.7,7.8-13.6
		c-0.3-7.6-5.5-15.2-9.9-17.3s-13.6-3.1-24-3l0,0L84.7,97.3z"/>
	<path class="st1" d="M79.3,93.1c0.3,2.4,2.4,4.3,4.8,4.3l0,0c-10.2,0.1-20.5,1.2-30.5,3.3C39,104,27.1,112.4,17.2,126.5
		c1.4-2,1-4.7-0.8-6.3c-1.4-1.4-2.3-3.2-2.7-5.1c10.5-12.7,22.9-20.5,37.8-23.9c9-1.9,18.3-3.1,27.5-3.4
		C79,89.5,79.1,91.3,79.3,93.1z"/>
	<path class="st1" d="M16.4,120.2c1.8,1.6,2.1,4.3,0.8,6.3v0.1c-0.1,0.1-0.1,0.2-0.2,0.3c-1.6,2.1-4.7,2.6-6.8,0.9
		c-2.1-1.6-2.6-4.7-0.9-6.8l0,0c1.5-2.1,3-4.1,4.5-6C14.1,117,15,118.8,16.4,120.2z"/>
	<path class="st1" d="M89.2,25.9c7.2-9,20-15.6,34.6-19.8l0,0c-1.3,0.3-2.4,1.2-3,2.3c-1.9,3.4-3.5,7-4.8,10.7
		c-9.3,3.8-16.8,8.8-20.6,14.8c-1.1,1.7-3.1,2.6-5.1,2.2c-3.4-0.7-6.9-1.1-10.4-1.1c-29.1,0-52.1,26.4-62.1,52.5
		c-4.7,12.4-5.4,22-4,27.8c-1.6,1.9-3.1,3.9-4.5,6C8.6,122,8.3,123,8.4,124H7.1c-5.3-8.4-4.8-23.2,1.6-40.1
		c11.1-29.3,37.4-58.8,71.1-58.8C83,25.1,86.1,25.4,89.2,25.9z"/>
	<path class="st2" d="M106.3,214.4c2.6-0.5,4.3-3.1,3.8-5.7l-0.1-0.3c6,17.8,19.2,26.1,41.5,26.1c11.1,0,23-2,34.2-4.2
		c1.3-0.3,2.5-0.4,3.8-0.4c4.8,0,9.4,2,12.8,5.5c11.7,11.7,11.7,37.8,11.7,38.9c-0.1,2.5,0.8,5,2.5,6.9c2.1,2,4.9,3,7.8,2.9
		c3.1,0.1,6.1-1.1,8.3-3.3c1.9-2.1,2.8-4.9,2.5-7.7c-0.1-1.3-0.2-2.5-0.2-3.8c-1-15.3-2.4-36.2,16.9-39.1c2.4-0.4,4.7-0.6,7.1-0.9
		c13.8-1.5,24.8-2.7,32.7-21.6c0.9-2.1,3.1-3.3,5.3-2.9c1.8,0.3,3.6,0.5,5.5,0.5c12.5,0,25.8-6.5,32.2-15.9c4-5.7,5.5-12.9,3.9-19.8
		c2.3-0.9,4.5-2.2,6.3-3.9c0.7-0.7,1.1-1.6,1.3-2.5l0.8,0.2c4.5,14.2,0.2,24.9-4.3,31.5c-8.2,12-24.4,20.1-40.2,20.1
		c-1.1,0-2.2,0-3.3-0.1c-10.2,21-25.5,22.6-39,24.1c-2.2,0.2-4.5,0.5-6.7,0.8c-9.7,1.5-9.7,12.4-8.6,28.8c0.1,1.3,0.2,2.6,0.2,3.9
		c0.5,5.5-1.4,10.9-5.1,15c-4,4.1-9.6,6.4-15.4,6.3c-5.5,0.1-10.8-2-14.7-5.8c-3.6-3.7-5.5-8.6-5.3-13.8c0.1-8.9-2.3-25.5-8.8-32
		c-2-2.2-5-3.1-7.8-2.4c-11.7,2.3-24.1,4.4-36,4.4c-25.1,0-41.7-9.9-49.6-29.5l0.6-1c0.8,0.5,1.8,0.8,2.7,0.8
		C105.7,214.5,106,214.5,106.3,214.4z"/>
	<path class="st2" d="M344.6,158.8c1.9,1.9,1.9,5,0,6.9c0,0,0,0,0,0c-1.8,1.7-4,3-6.3,3.9c-0.4-1.9-1-3.8-1.7-5.6
		c-0.7-1.8-0.3-3.8,1.1-5.2l0,0C339.6,156.9,342.7,156.9,344.6,158.8z"/>
	<path class="st2" d="M336.6,164c0.7,1.8,1.3,3.7,1.7,5.6c-16.5,7-52.6,6.8-82.2,5.1c-37.8-2.1-75.1,13.4-79.8,33.2
		c-0.5,2.2-2.5,3.7-4.7,3.8c-0.4,0-0.7,0-1.1-0.1c-2.6-0.6-4.2-3.2-3.6-5.8c0,0,0,0,0,0c5.8-24.9,46.1-43.1,89.7-40.7
		c52.3,2.9,76.4-1.6,81-6.3C336.3,160.2,335.9,162.2,336.6,164z"/>
	<path class="st2" d="M317.2,86c0.9,1.7,0.7,3.9-0.6,5.4c-1.5,1.7-3.5,2.9-5.6,3.6c-2.6-0.5-4.3-3.1-3.7-5.7c0,0,0-0.1,0-0.1
		c0.2-1.1,0.5-2.2,0.6-3.2c0.5-0.2,0.9-0.5,1.3-0.8c1.7-2,4.8-2.3,6.8-0.6c0,0,0,0,0,0C316.5,84.9,316.9,85.4,317.2,86z"/>
	<path class="st2" d="M348.8,117.7c5.8,14.2,8,33.2-2.1,45.6l-0.8-0.2c0.5-2.6-1.2-5.2-3.8-5.7c-1.6-0.3-3.2,0.2-4.3,1.3
		c9.1-8.9,7-25.1,2-37.3c-6.2-15.3-17.5-26.3-26.7-26.3h-0.8c-0.5,0-0.9,0-1.4-0.1c2.1-0.7,4.1-2,5.6-3.6c1.3-1.5,1.5-3.6,0.6-5.4
		l0.5-0.1C331.3,88.6,342.9,103.2,348.8,117.7z"/>
	<path class="st2" d="M311,95c-3.2,1.1-6.6,1.8-10,1.9c-1.4,0.1-2.9,0.2-4.4,0.2c-11.9,0-26.2-3.1-33.6-9.7c-2-1.7-2.3-4.8-0.6-6.8
		c1.7-2,4.8-2.3,6.8-0.6c0.1,0,0.1,0.1,0.2,0.2c8.8,7.8,32.1,8.7,38.6,5.8c-0.1,1.1-0.4,2.1-0.6,3.2C306.7,91.7,308.3,94.3,311,95
		C310.9,95,311,95,311,95z"/>
	<path class="st2" d="M285,117c2.1,1.7,2.4,4.8,0.7,6.8c-7.7,9.5-23.5,7.8-40.3,6.1c-4.6-0.5-9.3-1-13.9-1.2
		c-2.2-0.1-4.4-0.3-6.5-0.5c-10.2-0.9-14.9-0.9-17.4,2.7c-0.1-3.7-0.8-7.3-2.2-10.7c5.8-3,13.2-2.3,20.5-1.7c2,0.2,4.1,0.4,6.2,0.5
		c4.8,0.3,9.6,0.8,14.3,1.3c13.4,1.4,27.3,2.8,31.8-2.6C279.9,115.6,282.9,115.3,285,117z"/>
	<path class="st2" d="M228.7,62.5c6.3,7.6,8.9,17.8,7.7,30.4c-0.2,2.5-2.3,4.4-4.8,4.4h-0.5c-2.7-0.3-4.6-2.6-4.4-5.3
		c1-9.9-0.9-17.8-5.5-23.3c-5.8-7-15-9.2-21.7-9.8c-7.2-0.6-14.4-0.8-21.7-0.6c-13.1,0.4-26.3-0.3-39.4-1.9
		c-11.2-1.4-18.8-5.8-22.5-13.2c-3.9-7.8-2.5-17,0-24.2c4-1.6,8.1-3,12.3-4.1c-3.8,7.4-6.8,17.5-3.6,24c2.2,4.3,7.2,7,15,7.9
		c12.6,1.6,25.3,2.2,38,1.8c7.6-0.2,15.2,0,22.7,0.6C212.7,50.4,222.5,55,228.7,62.5z"/>
	<path class="st2" d="M207.6,130.9c-0.2,0.2-0.3,0.5-0.5,0.7c-1.3,2.3-4.2,3.2-6.6,1.9c-2.3-1.3-3.2-4.2-1.9-6.6
		c1.5-2.9,3.9-5.2,6.7-6.8C206.8,123.6,207.5,127.2,207.6,130.9z"/>
	<path class="st2" d="M202.9,134.1c1.8,0,3.4-1,4.3-2.5c0.1-0.3,0.3-0.5,0.5-0.7c0,1.8-0.1,3.6-0.4,5.4
		c-3.2,17.3-19.7,26.1-49.1,26.1c-23.1,0-41.3,0-49.1,14.7c-3.9,7.4-1.8,17.3,0.9,31.1v0.2l-0.1-0.2c-0.7-2.1-2.7-3.4-4.8-3.3
		c-2,0.1-3.9,0.1-5.7,0.2c-2.5-12.8-3.8-23.3,1-32.5c10.4-19.9,33.4-19.9,57.7-19.9c24,0,37.3-6.1,39.5-18.2c0.3-1.5,0.3-3,0.2-4.5
		h0.2C198.4,132.3,200.4,134.1,202.9,134.1L202.9,134.1z"/>
	<path class="st2" d="M197.9,129.9c-0.5-5.1-2.7-9.9-6.2-13.6c-7.4-7.8-19.8-11-35.1-9c-2.7,0.3-5.1-1.5-5.4-4.2
		c-0.3-2.7,1.5-5.1,4.2-5.4c18.4-2.4,33.8,1.9,43.4,11.9c2.9,3,5.2,6.6,6.7,10.5c-2.9,1.5-5.2,3.9-6.7,6.8c-0.5,0.9-0.7,2-0.6,3
		L197.9,129.9z"/>
	<path class="st2" d="M127.4,6.6c2.3,1.3,3.1,4.3,1.8,6.6c-0.3,0.6-0.6,1.1-0.9,1.7C124.1,16,120,17.4,116,19
		c1.3-3.7,2.9-7.3,4.8-10.6C122.1,6,125.1,5.2,127.4,6.6L127.4,6.6z"/>
	<path class="st2" d="M123.8,6.1C138,2,152.8,0,167.6,0c10.7,0,34.8,1.3,45.5,12.4c5.7-2.5,12-3.7,18.2-3.6
		c25.5,0,56.3,15.6,73.4,37.2c10.1,12.7,14.5,26.4,13,39.9l-0.5,0.1c-0.3-0.6-0.7-1.1-1.2-1.5c-2-1.7-5.1-1.5-6.8,0.6c0,0,0,0,0,0
		c-0.4,0.4-0.8,0.7-1.3,0.8c2-14.1-4.6-26.1-10.8-33.9c-15.1-19.1-43.4-33.5-65.8-33.5c-6.9,0-12.6,1.4-16.9,4.2
		c-2.3,1.4-5.3,0.8-6.7-1.5c0-0.1-0.1-0.1-0.1-0.2c-3.9-6.9-19.6-11.3-40-11.3c-13.3,0-26.5,1.8-39.3,5.2c0.3-0.6,0.6-1.2,0.9-1.7
		c1.3-2.3,0.5-5.3-1.8-6.6C126.3,5.9,125,5.8,123.8,6.1L123.8,6.1z"/>
	<path class="st2" d="M110,208.2l0.1,0.2l0.1,0.3c0.5,2.6-1.2,5.2-3.8,5.7c-0.3,0.1-0.7,0.1-1,0.1c-2.3,0-4.3-1.6-4.8-3.9l-0.1-0.6
		c-0.3-1.7-0.7-3.4-1-5.1c1.8,0,3.7-0.1,5.7-0.2C107.3,204.7,109.3,206.1,110,208.2z"/>
	<path class="st2" d="M103.6,58c0.2,2.7-1.8,5-4.5,5.2c0,0,0,0,0,0c-0.3,0-1.6,0.3-3.5,2.6C92,70,88.8,78.7,88.8,87.7
		c-3.2-0.1-6.4,0-9.7,0.1c0-10.5,3.4-21.5,9-28.2c3.1-3.7,6.6-5.8,10.3-6.1C101,53.3,103.4,55.3,103.6,58
		C103.6,58,103.6,58,103.6,58z"/>
	<path class="st2" d="M100.6,210.6c0.3,1.2,1,2.3,2,3l-0.6,1c-1.3,0-2.6,0.1-3.9,0.1c-27,0-45.7-8.6-55.7-25.6
		c-17.5,0.8-31.4-7.2-38.2-21.7C-2.4,153.7-1.1,136.4,7,124h1.3c0,2.7,2.2,4.8,4.9,4.8c1.4,0,2.8-0.7,3.7-1.8
		c-7.9,9.7-9.6,24.6-4,36.4s16.9,17.4,31.7,15.9c2-0.2,3.9,0.8,4.8,2.6c7.9,15.5,23.8,23.1,48.7,23.1h1.4c0.3,1.7,0.7,3.4,1,5.1
		L100.6,210.6z"/>
	<path class="st2" d="M89,91.9c0.3,2.7-1.6,5.1-4.2,5.4h-0.6c-2.5,0-4.5-1.8-4.8-4.3c-0.2-1.8-0.3-3.5-0.3-5.3
		c3.3-0.1,6.5-0.2,9.7-0.1C88.8,89.1,88.8,90.5,89,91.9z"/>
	<path class="st2" d="M84.7,97.3c2.7-0.3,4.6-2.7,4.3-5.4c0,0,0,0,0,0c-0.2-1.4-0.2-2.9-0.2-4.3c9.7,0.2,18.3,1.4,23.6,3.9
		c8.2,3.8,15,15.1,15.4,25.6c0.4,9.5-4.1,17.4-12.6,22.4c-9.7,5.6-21,7.3-31.5,7.3c-10.1,0-19.5-1.6-26.1-2.6l-2.6-0.4
		c-2.6-0.4-4.5-2.9-4-5.6c0.4-2.6,2.9-4.5,5.5-4l2.7,0.4c12.3,2,35.2,5.8,51.2-3.5c5.4-3.2,8.1-7.7,7.8-13.6
		c-0.3-7.6-5.5-15.2-9.9-17.3s-13.6-3.1-24-3l0,0L84.7,97.3z"/>
	<path class="st2" d="M79.3,93.1c0.3,2.4,2.4,4.3,4.8,4.3l0,0c-10.2,0.1-20.5,1.2-30.5,3.3C39,104,27.1,112.4,17.2,126.5
		c1.4-2,1-4.7-0.8-6.3c-1.4-1.4-2.3-3.2-2.7-5.1c10.5-12.7,22.9-20.5,37.8-23.9c9-1.9,18.3-3.1,27.5-3.4
		C79,89.5,79.1,91.3,79.3,93.1z"/>
	<path class="st2" d="M16.4,120.2c1.8,1.6,2.1,4.3,0.8,6.3v0.1c-0.1,0.1-0.1,0.2-0.2,0.3c-1.6,2.1-4.7,2.6-6.8,0.9
		c-2.1-1.6-2.6-4.7-0.9-6.8l0,0c1.5-2.1,3-4.1,4.5-6C14.1,117,15,118.8,16.4,120.2z"/>
	<path class="st2" d="M89.2,25.9c7.2-9,20-15.6,34.6-19.8l0,0c-1.3,0.3-2.4,1.2-3,2.3c-1.9,3.4-3.5,7-4.8,10.7
		c-9.3,3.8-16.8,8.8-20.6,14.8c-1.1,1.7-3.1,2.6-5.1,2.2c-3.4-0.7-6.9-1.1-10.4-1.1c-29.1,0-52.1,26.4-62.1,52.5
		c-4.7,12.4-5.4,22-4,27.8c-1.6,1.9-3.1,3.9-4.5,6C8.6,122,8.3,123,8.4,124H7.1c-5.3-8.4-4.8-23.2,1.6-40.1
		c11.1-29.3,37.4-58.8,71.1-58.8C83,25.1,86.1,25.4,89.2,25.9z"/>
</g>
</svg>
