<svg xmlns="http://www.w3.org/2000/svg" viewBox="0 0 353.7 293.78"><defs><style>.cls-1{fill:#1a8bac;}.cls-2{fill:#333;}.cls-3{fill:#231815;}</style></defs><g id="レイヤー_4" data-name="レイヤー 4"><path class="cls-1" d="M21.24,112.37,52.52,95a14.56,14.56,0,0,1,3.19-.77L96,95.37a14.7,14.7,0,0,1,5.9.46l4.62,1.32a14.79,14.79,0,0,1,10.63,12.5l.93,7.91,4,7.81,8.84.14a14.82,14.82,0,0,1,11.22,5.42l1.2,1.47a14.92,14.92,0,0,1,3.13,11.9c-.83,5-2.14,10.89-3.74,11.44-2,.69-17.89,6-26.79,8.94a14.68,14.68,0,0,0-8.7,7.77l-4,8.48a14.78,14.78,0,0,0-1.26,8.18c1.15,8.62,3.37,27.22.68,24.59-3.49-3.41-13.83-5.89-23.13-5.72S55.22,197,55.22,197l-12.34-7.61c-.32-.2-.66-.39-1-.56l-18.71-9.63a14.72,14.72,0,0,1-5.32-4.62C13.23,168.1,2.86,153,4.2,150.88c1.18-1.9,5.26-18.15,7.69-28.09A14.79,14.79,0,0,1,21.24,112.37Z"/><path class="cls-2" d="M106.34,214.44a4.86,4.86,0,0,0,3.79-5.72l-.06-.3c6,17.77,19.15,26.05,41.5,26.05,11.1,0,23-2,34.18-4.22a20.32,20.32,0,0,1,3.83-.39,17.73,17.73,0,0,1,12.75,5.49C214,247.08,214,273.16,214,274.26a9.27,9.27,0,0,0,2.52,6.88,11,11,0,0,0,7.77,2.93,11.37,11.37,0,0,0,8.3-3.27,10,10,0,0,0,2.46-7.72c-.08-1.26-.16-2.54-.25-3.84-1-15.28-2.39-36.19,16.88-39.08,2.35-.36,4.71-.62,7.06-.88,13.82-1.52,24.75-2.72,32.67-21.62a4.86,4.86,0,0,1,5.3-2.91,31.21,31.21,0,0,0,5.47.46c12.54,0,25.78-6.52,32.2-15.86a24.94,24.94,0,0,0,3.93-19.75,19.63,19.63,0,0,0,6.29-3.94,4.82,4.82,0,0,0,1.33-2.5l.77.19c4.46,14.21.21,24.89-4.32,31.49-8.25,12-24.4,20.07-40.2,20.07-1.12,0-2.24,0-3.34-.12-10.18,21-25.47,22.65-39,24.14-2.23.25-4.46.49-6.68.82-9.72,1.46-9.72,12.37-8.63,28.85.09,1.32.17,2.63.25,3.91a19.54,19.54,0,0,1-5.09,14.95,21.11,21.11,0,0,1-15.36,6.32A20.73,20.73,0,0,1,209.6,288a18.9,18.9,0,0,1-5.34-13.77c.05-8.9-2.29-25.46-8.81-32a8,8,0,0,0-7.84-2.42c-11.68,2.28-24.12,4.39-36,4.39-25.07,0-41.72-9.92-49.55-29.51l.63-1a4.88,4.88,0,0,0,2.72.84A4.63,4.63,0,0,0,106.34,214.44Z"/><path class="cls-2" d="M344.57,158.8a4.85,4.85,0,0,1,0,6.86,19.63,19.63,0,0,1-6.29,3.94,34.67,34.67,0,0,0-1.67-5.63,4.87,4.87,0,0,1,1.1-5.17l0,0A4.86,4.86,0,0,1,344.57,158.8Z"/><path class="cls-2" d="M336.61,164a34.67,34.67,0,0,1,1.67,5.63c-16.45,7-52.6,6.79-82.16,5.15C218.29,172.68,181,188.21,176.37,208a4.85,4.85,0,0,1-4.72,3.75,4.73,4.73,0,0,1-1.11-.13,4.84,4.84,0,0,1-3.62-5.83c5.8-24.87,46.06-43.13,89.74-40.74,52.31,2.89,76.35-1.57,81-6.26A4.87,4.87,0,0,0,336.61,164Z"/><path class="cls-2" d="M317.2,86a4.84,4.84,0,0,1-.6,5.38A13.17,13.17,0,0,1,311,95a4.83,4.83,0,0,1-3.71-5.85c.25-1.09.45-2.16.6-3.22a4.06,4.06,0,0,0,1.29-.85,4.85,4.85,0,0,1,6.84-.56A4.6,4.6,0,0,1,317.2,86Z"/><path class="cls-2" d="M348.78,117.74c5.79,14.19,8,33.16-2.11,45.61l-.77-.19a4.85,4.85,0,0,0-8.16-4.4c9.11-8.94,7-25.15,2.05-37.35-6.24-15.26-17.45-26.35-26.67-26.35l-.77,0A4.55,4.55,0,0,1,311,95a13.17,13.17,0,0,0,5.58-3.64,4.84,4.84,0,0,0,.6-5.38l.51-.14C331.26,88.62,342.85,103.24,348.78,117.74Z"/><path class="cls-2" d="M311,95A35.9,35.9,0,0,1,301,96.93c-1.43.11-2.91.15-4.44.15-11.91,0-26.2-3.09-33.6-9.68a4.85,4.85,0,1,1,6.44-7.25c8.75,7.78,32.07,8.69,38.56,5.77-.15,1.06-.35,2.13-.6,3.22A4.83,4.83,0,0,0,311,95Z"/><path class="cls-2" d="M285,117a4.86,4.86,0,0,1,.69,6.83c-7.74,9.48-23.55,7.83-40.28,6.08-4.56-.48-9.28-1-13.85-1.23-2.22-.14-4.39-.33-6.47-.51-10.19-.9-14.91-.91-17.43,2.71a30.33,30.33,0,0,0-2.23-10.68c5.79-3,13.24-2.34,20.51-1.7,2,.18,4.07.36,6.2.49,4.77.28,9.6.78,14.27,1.27,13.44,1.4,27.34,2.85,31.76-2.57A4.86,4.86,0,0,1,285,117Z"/><path class="cls-2" d="M228.71,62.54c6.3,7.62,8.88,17.85,7.68,30.42a4.87,4.87,0,0,1-4.83,4.39l-.47,0a4.86,4.86,0,0,1-4.36-5.3c1-9.9-.9-17.75-5.5-23.31-5.77-7-15-9.21-21.67-9.83a193.25,193.25,0,0,0-21.67-.56,262.53,262.53,0,0,1-39.36-1.87c-11.18-1.37-18.75-5.82-22.46-13.21-3.94-7.82-2.46-17,0-24.21a106.28,106.28,0,0,1,12.27-4.12c-3.84,7.42-6.8,17.52-3.55,24,2.16,4.31,7.21,7,15,7.93a253.74,253.74,0,0,0,38,1.81,199.22,199.22,0,0,1,22.71.6C212.7,50.37,222.46,55,228.71,62.54Z"/><path class="cls-2" d="M207.63,130.86c-.16.23-.31.48-.46.74a4.85,4.85,0,1,1-8.51-4.66,16,16,0,0,1,6.74-6.76A30.33,30.33,0,0,1,207.63,130.86Z"/><path class="cls-2" d="M202.91,134.12a4.84,4.84,0,0,0,4.26-2.52c.15-.26.3-.51.46-.74a25.86,25.86,0,0,1-.42,5.36c-3.21,17.32-19.7,26.11-49.05,26.11-23.1,0-41.35,0-49.08,14.69-3.87,7.36-1.85,17.34.94,31.15l0,.25-.09-.25a4.81,4.81,0,0,0-4.83-3.33c-2,.09-3.88.14-5.66.16-2.51-12.82-3.85-23.28,1-32.5,10.45-19.88,33.39-19.88,57.66-19.88,24,0,37.28-6.11,39.51-18.17a17.44,17.44,0,0,0,.2-4.53h.23a4.84,4.84,0,0,0,4.81,4.21Z"/><path class="cls-2" d="M197.87,129.92a22.41,22.41,0,0,0-6.24-13.55c-7.35-7.76-19.8-11-35.07-9a4.85,4.85,0,0,1-1.24-9.63c18.42-2.38,33.82,1.86,43.36,11.93a33.55,33.55,0,0,1,6.72,10.48,16,16,0,0,0-6.74,6.76,4.82,4.82,0,0,0-.56,3Z"/><path class="cls-2" d="M127.41,6.56a4.86,4.86,0,0,1,1.82,6.62c-.32.56-.64,1.14-.94,1.74A106.28,106.28,0,0,0,116,19a62.91,62.91,0,0,1,4.77-10.65,4.88,4.88,0,0,1,6.62-1.83Z"/><path class="cls-2" d="M123.76,6.06A161.72,161.72,0,0,1,167.57,0c10.66,0,34.81,1.29,45.5,12.35a43.42,43.42,0,0,1,18.22-3.56c25.45,0,56.3,15.64,73.38,37.19,10.09,12.73,14.54,26.41,13,39.85l-.51.14A4.6,4.6,0,0,0,316,84.51a4.85,4.85,0,0,0-6.84.56,4.06,4.06,0,0,1-1.29.85c2-14.06-4.64-26.08-10.84-33.91-15.14-19.1-43.42-33.52-65.78-33.52-6.92,0-12.62,1.41-16.92,4.18A4.85,4.85,0,0,1,207.53,21c-3.92-6.86-19.6-11.29-40-11.29a153.76,153.76,0,0,0-39.28,5.22c.3-.6.62-1.18.94-1.74a4.84,4.84,0,0,0-5.46-7.08Z"/><path class="cls-2" d="M110,208.17l.09.25.06.3a4.86,4.86,0,0,1-3.79,5.72,4.63,4.63,0,0,1-1,.1,4.86,4.86,0,0,1-4.75-3.89l-.11-.55c-.35-1.74-.7-3.44-1-5.1,1.78,0,3.65-.07,5.66-.16A4.81,4.81,0,0,1,110,208.17Z"/><path class="cls-2" d="M103.56,58a4.85,4.85,0,0,1-4.5,5.18c-.34,0-1.62.29-3.52,2.59C92,70,88.78,78.66,88.75,87.65c-3.16-.06-6.41,0-9.7.11,0-10.46,3.44-21.5,9-28.23,3.07-3.7,6.63-5.8,10.3-6.07A4.87,4.87,0,0,1,103.56,58Z"/><path class="cls-2" d="M100.62,210.65a4.85,4.85,0,0,0,2,3l-.63,1c-1.34,0-2.63.05-3.89.05-27,0-45.69-8.6-55.74-25.58-17.48.76-31.39-7.21-38.23-21.68-6.52-13.79-5.24-31.08,2.9-43.48l1.29,0a4.85,4.85,0,0,0,8.6,3c-7.93,9.67-9.58,24.64-4,36.41s16.94,17.45,31.72,15.94a4.84,4.84,0,0,1,4.82,2.62C57.38,197.44,73.3,205,98.13,205h1.36c.32,1.66.67,3.36,1,5.1Z"/><path class="cls-2" d="M89,91.93a4.86,4.86,0,0,1-4.25,5.39l-.57,0a4.85,4.85,0,0,1-4.81-4.29,44.13,44.13,0,0,1-.3-5.3c3.29-.14,6.54-.17,9.7-.11A36,36,0,0,0,89,91.93Z"/><path class="cls-2" d="M84.73,97.32A4.86,4.86,0,0,0,89,91.93a36,36,0,0,1-.23-4.28c9.68.21,18.34,1.41,23.56,3.87,8.2,3.85,15,15.11,15.43,25.62.41,9.47-4.08,17.42-12.63,22.39-9.68,5.62-21,7.3-31.48,7.3-10.1,0-19.5-1.55-26.11-2.63l-2.62-.43a4.85,4.85,0,1,1,1.51-9.59l2.68.44c12.29,2,35.17,5.8,51.15-3.48,5.43-3.16,8.06-7.72,7.8-13.58-.32-7.59-5.46-15.19-9.86-17.26s-13.59-3.06-24-3h0Z"/><path class="cls-2" d="M79.35,93.06a4.85,4.85,0,0,0,4.81,4.29h0a152,152,0,0,0-30.47,3.3c-14.64,3.3-26.58,11.77-36.47,25.88a4.86,4.86,0,0,0-.79-6.34,9.83,9.83,0,0,1-2.68-5.11c10.45-12.69,22.88-20.53,37.8-23.9a158.3,158.3,0,0,1,27.5-3.42A44.13,44.13,0,0,0,79.35,93.06Z"/><path class="cls-2" d="M16.43,120.19a4.86,4.86,0,0,1,.79,6.34l0,.06a3.3,3.3,0,0,1-.22.3A4.85,4.85,0,0,1,9.22,121c1.47-2.09,3-4.08,4.53-6A9.83,9.83,0,0,0,16.43,120.19Z"/><path class="cls-2" d="M89.17,25.88c7.21-9,20-15.57,34.59-19.82v0a4.85,4.85,0,0,0-3,2.29A62.91,62.91,0,0,0,116,19c-9.31,3.82-16.78,8.77-20.62,14.78A4.86,4.86,0,0,1,90.29,36a49.81,49.81,0,0,0-10.45-1.13c-29.08,0-52.14,26.36-62.08,52.48-4.74,12.42-5.44,22-4,27.77-1.56,1.87-3.06,3.86-4.53,6a4.82,4.82,0,0,0-.87,2.91l-1.29,0c-5.31-8.42-4.81-23.2,1.63-40.11C19.82,54.63,46.14,25.13,79.84,25.13A59.07,59.07,0,0,1,89.17,25.88Z"/><path class="cls-3" d="M106.34,214.44a4.86,4.86,0,0,0,3.79-5.72l-.06-.3c6,17.77,19.15,26.05,41.5,26.05,11.1,0,23-2,34.18-4.22a20.32,20.32,0,0,1,3.83-.39,17.73,17.73,0,0,1,12.75,5.49C214,247.08,214,273.16,214,274.26a9.27,9.27,0,0,0,2.52,6.88,11,11,0,0,0,7.77,2.93,11.37,11.37,0,0,0,8.3-3.27,10,10,0,0,0,2.46-7.72c-.08-1.26-.16-2.54-.25-3.84-1-15.28-2.39-36.19,16.88-39.08,2.35-.36,4.71-.62,7.06-.88,13.82-1.52,24.75-2.72,32.67-21.62a4.86,4.86,0,0,1,5.3-2.91,31.21,31.21,0,0,0,5.47.46c12.54,0,25.78-6.52,32.2-15.86a24.94,24.94,0,0,0,3.93-19.75,19.63,19.63,0,0,0,6.29-3.94,4.82,4.82,0,0,0,1.33-2.5l.77.19c4.46,14.21.21,24.89-4.32,31.49-8.25,12-24.4,20.07-40.2,20.07-1.12,0-2.24,0-3.34-.12-10.18,21-25.47,22.65-39,24.14-2.23.25-4.46.49-6.68.82-9.72,1.46-9.72,12.37-8.63,28.85.09,1.32.17,2.63.25,3.91a19.54,19.54,0,0,1-5.09,14.95,21.11,21.11,0,0,1-15.36,6.32A20.73,20.73,0,0,1,209.6,288a18.9,18.9,0,0,1-5.34-13.77c.05-8.9-2.29-25.46-8.81-32a8,8,0,0,0-7.84-2.42c-11.68,2.28-24.12,4.39-36,4.39-25.07,0-41.72-9.92-49.55-29.51l.63-1a4.88,4.88,0,0,0,2.72.84A4.63,4.63,0,0,0,106.34,214.44Z"/><path class="cls-3" d="M344.57,158.8a4.85,4.85,0,0,1,0,6.86,19.63,19.63,0,0,1-6.29,3.94,34.67,34.67,0,0,0-1.67-5.63,4.87,4.87,0,0,1,1.1-5.17l0,0A4.86,4.86,0,0,1,344.57,158.8Z"/><path class="cls-3" d="M336.61,164a34.67,34.67,0,0,1,1.67,5.63c-16.45,7-52.6,6.79-82.16,5.15C218.29,172.68,181,188.21,176.37,208a4.85,4.85,0,0,1-4.72,3.75,4.73,4.73,0,0,1-1.11-.13,4.84,4.84,0,0,1-3.62-5.83c5.8-24.87,46.06-43.13,89.74-40.74,52.31,2.89,76.35-1.57,81-6.26A4.87,4.87,0,0,0,336.61,164Z"/><path class="cls-3" d="M317.2,86a4.84,4.84,0,0,1-.6,5.38A13.17,13.17,0,0,1,311,95a4.83,4.83,0,0,1-3.71-5.85c.25-1.09.45-2.16.6-3.22a4.06,4.06,0,0,0,1.29-.85,4.85,4.85,0,0,1,6.84-.56A4.6,4.6,0,0,1,317.2,86Z"/><path class="cls-3" d="M348.78,117.74c5.79,14.19,8,33.16-2.11,45.61l-.77-.19a4.85,4.85,0,0,0-8.16-4.4c9.11-8.94,7-25.15,2.05-37.35-6.24-15.26-17.45-26.35-26.67-26.35l-.77,0A4.55,4.55,0,0,1,311,95a13.17,13.17,0,0,0,5.58-3.64,4.84,4.84,0,0,0,.6-5.38l.51-.14C331.26,88.62,342.85,103.24,348.78,117.74Z"/><path class="cls-3" d="M311,95A35.9,35.9,0,0,1,301,96.93c-1.43.11-2.91.15-4.44.15-11.91,0-26.2-3.09-33.6-9.68a4.85,4.85,0,1,1,6.44-7.25c8.75,7.78,32.07,8.69,38.56,5.77-.15,1.06-.35,2.13-.6,3.22A4.83,4.83,0,0,0,311,95Z"/><path class="cls-3" d="M285,117a4.86,4.86,0,0,1,.69,6.83c-7.74,9.48-23.55,7.83-40.28,6.08-4.56-.48-9.28-1-13.85-1.23-2.22-.14-4.39-.33-6.47-.51-10.19-.9-14.91-.91-17.43,2.71a30.33,30.33,0,0,0-2.23-10.68c5.79-3,13.24-2.34,20.51-1.7,2,.18,4.07.36,6.2.49,4.77.28,9.6.78,14.27,1.27,13.44,1.4,27.34,2.85,31.76-2.57A4.86,4.86,0,0,1,285,117Z"/><path class="cls-3" d="M228.71,62.54c6.3,7.62,8.88,17.85,7.68,30.42a4.87,4.87,0,0,1-4.83,4.39l-.47,0a4.86,4.86,0,0,1-4.36-5.3c1-9.9-.9-17.75-5.5-23.31-5.77-7-15-9.21-21.67-9.83a193.25,193.25,0,0,0-21.67-.56,262.53,262.53,0,0,1-39.36-1.87c-11.18-1.37-18.75-5.82-22.46-13.21-3.94-7.82-2.46-17,0-24.21a106.28,106.28,0,0,1,12.27-4.12c-3.84,7.42-6.8,17.52-3.55,24,2.16,4.31,7.21,7,15,7.93a253.74,253.74,0,0,0,38,1.81,199.22,199.22,0,0,1,22.71.6C212.7,50.37,222.46,55,228.71,62.54Z"/><path class="cls-3" d="M207.63,130.86c-.16.23-.31.48-.46.74a4.85,4.85,0,1,1-8.51-4.66,16,16,0,0,1,6.74-6.76A30.33,30.33,0,0,1,207.63,130.86Z"/><path class="cls-3" d="M202.91,134.12a4.84,4.84,0,0,0,4.26-2.52c.15-.26.3-.51.46-.74a25.86,25.86,0,0,1-.42,5.36c-3.21,17.32-19.7,26.11-49.05,26.11-23.1,0-41.35,0-49.08,14.69-3.87,7.36-1.85,17.34.94,31.15l0,.25-.09-.25a4.81,4.81,0,0,0-4.83-3.33c-2,.09-3.88.14-5.66.16-2.51-12.82-3.85-23.28,1-32.5,10.45-19.88,33.39-19.88,57.66-19.88,24,0,37.28-6.11,39.51-18.17a17.44,17.44,0,0,0,.2-4.53h.23a4.84,4.84,0,0,0,4.81,4.21Z"/><path class="cls-3" d="M197.87,129.92a22.41,22.41,0,0,0-6.24-13.55c-7.35-7.76-19.8-11-35.07-9a4.85,4.85,0,0,1-1.24-9.63c18.42-2.38,33.82,1.86,43.36,11.93a33.55,33.55,0,0,1,6.72,10.48,16,16,0,0,0-6.74,6.76,4.82,4.82,0,0,0-.56,3Z"/><path class="cls-3" d="M127.41,6.56a4.86,4.86,0,0,1,1.82,6.62c-.32.56-.64,1.14-.94,1.74A106.28,106.28,0,0,0,116,19a62.91,62.91,0,0,1,4.77-10.65,4.88,4.88,0,0,1,6.62-1.83Z"/><path class="cls-3" d="M123.76,6.06A161.72,161.72,0,0,1,167.57,0c10.66,0,34.81,1.29,45.5,12.35a43.42,43.42,0,0,1,18.22-3.56c25.45,0,56.3,15.64,73.38,37.19,10.09,12.73,14.54,26.41,13,39.85l-.51.14A4.6,4.6,0,0,0,316,84.51a4.85,4.85,0,0,0-6.84.56,4.06,4.06,0,0,1-1.29.85c2-14.06-4.64-26.08-10.84-33.91-15.14-19.1-43.42-33.52-65.78-33.52-6.92,0-12.62,1.41-16.92,4.18A4.85,4.85,0,0,1,207.53,21c-3.92-6.86-19.6-11.29-40-11.29a153.76,153.76,0,0,0-39.28,5.22c.3-.6.62-1.18.94-1.74a4.84,4.84,0,0,0-5.46-7.08Z"/><path class="cls-3" d="M110,208.17l.09.25.06.3a4.86,4.86,0,0,1-3.79,5.72,4.63,4.63,0,0,1-1,.1,4.86,4.86,0,0,1-4.75-3.89l-.11-.55c-.35-1.74-.7-3.44-1-5.1,1.78,0,3.65-.07,5.66-.16A4.81,4.81,0,0,1,110,208.17Z"/><path class="cls-3" d="M103.56,58a4.85,4.85,0,0,1-4.5,5.18c-.34,0-1.62.29-3.52,2.59C92,70,88.78,78.66,88.75,87.65c-3.16-.06-6.41,0-9.7.11,0-10.46,3.44-21.5,9-28.23,3.07-3.7,6.63-5.8,10.3-6.07A4.87,4.87,0,0,1,103.56,58Z"/><path class="cls-3" d="M100.62,210.65a4.85,4.85,0,0,0,2,3l-.63,1c-1.34,0-2.63.05-3.89.05-27,0-45.69-8.6-55.74-25.58-17.48.76-31.39-7.21-38.23-21.68-6.52-13.79-5.24-31.08,2.9-43.48l1.29,0a4.85,4.85,0,0,0,8.6,3c-7.93,9.67-9.58,24.64-4,36.41s16.94,17.45,31.72,15.94a4.84,4.84,0,0,1,4.82,2.62C57.38,197.44,73.3,205,98.13,205h1.36c.32,1.66.67,3.36,1,5.1Z"/><path class="cls-3" d="M89,91.93a4.86,4.86,0,0,1-4.25,5.39l-.57,0a4.85,4.85,0,0,1-4.81-4.29,44.13,44.13,0,0,1-.3-5.3c3.29-.14,6.54-.17,9.7-.11A36,36,0,0,0,89,91.93Z"/><path class="cls-3" d="M84.73,97.32A4.86,4.86,0,0,0,89,91.93a36,36,0,0,1-.23-4.28c9.68.21,18.34,1.41,23.56,3.87,8.2,3.85,15,15.11,15.43,25.62.41,9.47-4.08,17.42-12.63,22.39-9.68,5.62-21,7.3-31.48,7.3-10.1,0-19.5-1.55-26.11-2.63l-2.62-.43a4.85,4.85,0,1,1,1.51-9.59l2.68.44c12.29,2,35.17,5.8,51.15-3.48,5.43-3.16,8.06-7.72,7.8-13.58-.32-7.59-5.46-15.19-9.86-17.26s-13.59-3.06-24-3h0Z"/><path class="cls-3" d="M79.35,93.06a4.85,4.85,0,0,0,4.81,4.29h0a152,152,0,0,0-30.47,3.3c-14.64,3.3-26.58,11.77-36.47,25.88a4.86,4.86,0,0,0-.79-6.34,9.83,9.83,0,0,1-2.68-5.11c10.45-12.69,22.88-20.53,37.8-23.9a158.3,158.3,0,0,1,27.5-3.42A44.13,44.13,0,0,0,79.35,93.06Z"/><path class="cls-3" d="M16.43,120.19a4.86,4.86,0,0,1,.79,6.34l0,.06a3.3,3.3,0,0,1-.22.3A4.85,4.85,0,0,1,9.22,121c1.47-2.09,3-4.08,4.53-6A9.83,9.83,0,0,0,16.43,120.19Z"/><path class="cls-3" d="M89.17,25.88c7.21-9,20-15.57,34.59-19.82v0a4.85,4.85,0,0,0-3,2.29A62.91,62.91,0,0,0,116,19c-9.31,3.82-16.78,8.77-20.62,14.78A4.86,4.86,0,0,1,90.29,36a49.81,49.81,0,0,0-10.45-1.13c-29.08,0-52.14,26.36-62.08,52.48-4.74,12.42-5.44,22-4,27.77-1.56,1.87-3.06,3.86-4.53,6a4.82,4.82,0,0,0-.87,2.91l-1.29,0c-5.31-8.42-4.81-23.2,1.63-40.11C19.82,54.63,46.14,25.13,79.84,25.13A59.07,59.07,0,0,1,89.17,25.88Z"/></g></svg>