<?xml version="1.0" encoding="utf-8"?>
<!-- Generator: Adobe Illustrator 25.4.1, SVG Export Plug-In . SVG Version: 6.00 Build 0)  -->
<svg version="1.1" xmlns="http://www.w3.org/2000/svg" xmlns:xlink="http://www.w3.org/1999/xlink" x="0px" y="0px"
	 viewBox="0 0 360 300" style="enable-background:new 0 0 360 300;" xml:space="preserve">
<style type="text/css">
	.st0{display:none;fill:#CCCCCC;}
	.st1{fill:#FFFCEC;fill-opacity:0.7;}
	.st2{fill:#ABDCD6;}
	.st3{fill:#333333;}
	.st4{fill:#231815;}
</style>
<g id="PC">
	<rect x="-1544.05" y="5809" class="st0" width="375.95" height="588"/>
</g>
<g id="スマホ">
</g>
<g id="ナビ">
</g>
<g id="レイヤー_4">
	<path class="st1" d="M214.17,20.41c0,0-73.18-34.64-118.44,12.85c-28.49,2.23-74.3,4.47-81.56,86.59
		c-1.68,15.08-20.11,65.36,33.52,68.16c7.26,8.38,11.17,30.73,59.78,23.46c3.91,11.17,18.99,39.66,87.15,27.93
		c4.47,1.68,17.32,11.73,17.88,29.05c0.56,17.32,5.03,26.26,16.76,25.14c11.17-5.03,15.08-22.35,15.08-32.96
		c0-10.61-1.68-18.44,9.5-20.11s38.55-11.17,44.13-26.26c9.5-2.79,48.04,0,48.04-47.49c3.91-16.76,13.41-60.34-26.82-72.63
		c-5.59-17.32-3.91-48.6-40.78-63.13C260.54,20.41,228.69,15.38,214.17,20.41z"/>
	<g>
		<g>
			<path class="st2" d="M146.45,135.51l-1.2-1.47c-2.76-3.37-6.86-5.36-11.22-5.43l-8.84-0.14l-3.99-7.81l-0.93-7.91
				c-0.7-5.93-4.89-10.86-10.63-12.5l-4.62-1.32c-1.92-0.55-3.92-0.7-5.9-0.46l-40.25-1.16c-1.09,0.14-2.16,0.39-3.2,0.77
				l-31.28,17.39c-4.67,1.69-8.17,5.6-9.35,10.42c-2.43,9.95-6.51,26.2-7.69,28.09c-1.34,2.15,9.03,17.22,13.65,23.74
				c1.38,1.95,3.19,3.53,5.32,4.62l18.71,9.63c0.34,0.18,0.68,0.36,1,0.57l12.34,7.61c0,0,15,11.1,24.3,10.93
				c9.3-0.17,19.64,2.31,23.13,5.72c2.69,2.63,0.48-15.97-0.68-24.59c-0.37-2.81,0.06-5.61,1.26-8.18l3.96-8.49
				c1.72-3.69,4.84-6.49,8.7-7.77c8.91-2.96,24.79-8.25,26.8-8.94c1.6-0.55,2.91-6.47,3.74-11.44
				C150.28,143.17,149.17,138.84,146.45,135.51z"/>
			<g>
				<g>
					<g id="XMLID_00000149345295141973155990000014439574276948757641_">
						<path class="st3" d="M351.93,120.86c-5.93-14.51-17.52-29.13-31.07-31.91c1.5-13.45-2.95-27.12-13.03-39.85
							c-17.08-21.55-47.94-37.19-73.38-37.19c-6.95,0-13.07,1.19-18.23,3.56C205.53,4.4,181.38,3.11,170.72,3.11
							c-13.99,0-29.74,1.96-43.82,6.06c-14.58,4.25-27.37,10.78-34.59,19.82c-3.12-0.5-6.25-0.75-9.33-0.75
							c-33.7,0-60.02,29.5-71.15,58.73c-6.44,16.9-6.94,31.69-1.63,40.11c-8.14,12.39-9.43,29.68-2.91,43.48
							c6.85,14.47,20.76,22.44,38.24,21.68c10.04,16.98,28.77,25.58,55.74,25.58c1.26,0,2.55-0.02,3.89-0.05
							c7.83,19.59,24.48,29.51,49.54,29.51c11.92,0,24.37-2.12,36.04-4.4c3.14-0.62,5.56,0.13,7.84,2.42
							c6.52,6.56,8.87,23.12,8.82,32.01c-0.03,5.46,1.81,10.23,5.34,13.77c3.66,3.68,9.01,5.8,14.66,5.8
							c5.97,0,11.57-2.3,15.36-6.32c3.67-3.89,5.43-9.06,5.09-14.95c-0.08-1.28-0.16-2.59-0.25-3.91
							c-1.09-16.48-1.09-27.39,8.63-28.85c2.22-0.33,4.45-0.58,6.68-0.82c13.57-1.49,28.86-3.18,39.04-24.15
							c1.1,0.09,2.22,0.13,3.34,0.13c15.8,0,31.95-8.07,40.2-20.07c4.54-6.61,8.78-17.29,4.32-31.49
							C359.96,154.01,357.72,135.04,351.93,120.86z M337.5,192.46c-6.41,9.33-19.65,15.86-32.2,15.86c-1.89,0-3.74-0.15-5.47-0.45
							c-2.23-0.38-4.43,0.82-5.3,2.91c-7.92,18.9-18.85,20.1-32.67,21.62c-2.35,0.26-4.71,0.52-7.06,0.87
							c-19.27,2.89-17.89,23.81-16.87,39.09c0.08,1.3,0.17,2.58,0.24,3.83c0.19,3.2-0.64,5.79-2.46,7.72
							c-1.97,2.08-4.99,3.28-8.3,3.28c-3.09,0-5.92-1.07-7.78-2.94c-1.69-1.7-2.54-4.01-2.52-6.87c0.01-1.1,0.02-27.19-11.64-38.91
							c-3.57-3.59-7.98-5.49-12.75-5.49c-1.24,0-2.54,0.13-3.83,0.39c-11.2,2.19-23.08,4.22-34.18,4.22
							c-22.35,0-35.55-8.28-41.5-26.05l-0.05-0.24c-2.79-13.81-4.81-23.8-0.94-31.15c7.73-14.7,25.98-14.7,49.08-14.7
							c29.34,0,45.84-8.78,49.05-26.11c0.33-1.75,0.46-3.55,0.42-5.36c2.52-3.62,7.24-3.6,17.43-2.71c2.09,0.18,4.25,0.37,6.48,0.5
							c4.56,0.27,9.28,0.76,13.84,1.24c16.73,1.75,32.55,3.4,40.28-6.08c1.7-2.08,1.38-5.14-0.69-6.83
							c-2.07-1.69-5.13-1.38-6.83,0.69c-4.42,5.42-18.31,3.97-31.75,2.57c-4.67-0.49-9.5-0.99-14.28-1.27
							c-2.13-0.13-4.2-0.31-6.2-0.49c-7.27-0.64-14.71-1.3-20.51,1.7c-1.53-3.8-3.8-7.39-6.72-10.48
							c-9.54-10.07-24.94-14.31-43.36-11.93c-2.66,0.35-4.54,2.78-4.19,5.43c0.34,2.66,2.78,4.53,5.43,4.19
							c15.27-1.97,27.72,1.21,35.07,8.98c4.15,4.39,5.9,9.35,6.24,13.55c0.13,1.66,0.05,3.19-0.2,4.53
							c-2.23,12.05-15.53,18.17-39.51,18.17c-24.27,0-47.21,0-57.67,19.88c-4.85,9.22-3.51,19.68-1,32.49
							c-0.46,0.01-0.92,0.01-1.36,0.01c-24.83,0-40.75-7.57-48.66-23.15c-0.91-1.79-2.81-2.83-4.82-2.63
							c-14.78,1.52-26.2-4.26-31.72-15.93c-5.56-11.77-3.91-26.74,4.02-36.41c0.08-0.1,0.15-0.19,0.22-0.3
							c0.02-0.02,0.03-0.04,0.05-0.07c9.89-14.11,21.82-22.58,36.47-25.88c9.23-2.09,20.43-3.19,30.46-3.29
							c10.43-0.11,19.6,0.87,24.03,2.95c4.4,2.07,9.54,9.67,9.86,17.26c0.25,5.86-2.38,10.43-7.81,13.58
							c-15.98,9.28-38.86,5.51-51.14,3.48l-2.68-0.44c-2.66-0.42-5.13,1.39-5.55,4.03c-0.42,2.65,1.39,5.14,4.04,5.56l2.61,0.42
							c6.61,1.09,16.01,2.64,26.12,2.64c10.52,0,21.79-1.68,31.47-7.3c8.55-4.97,13.04-12.92,12.63-22.39
							c-0.45-10.51-7.23-21.76-15.42-25.62c-5.22-2.46-13.88-3.66-23.56-3.86c0.03-8.99,3.26-17.67,6.79-21.93
							c1.9-2.3,3.18-2.56,3.52-2.58c2.67-0.19,4.69-2.51,4.49-5.19c-0.19-2.67-2.51-4.67-5.19-4.49c-3.67,0.27-7.24,2.37-10.31,6.07
							c-5.57,6.73-9,17.77-9.02,28.23c-9.63,0.39-19.48,1.6-27.5,3.42c-14.92,3.37-27.35,11.22-37.81,23.9
							c-1.43-5.78-0.72-15.35,4.01-27.76c9.95-26.12,33-52.48,62.08-52.48c3.45,0,6.97,0.38,10.46,1.12
							c1.98,0.42,4.02-0.42,5.11-2.14c3.84-6.01,11.31-10.96,20.62-14.78c-2.41,7.18-3.89,16.39,0.05,24.21
							c3.71,7.39,11.28,11.83,22.46,13.2c17.63,2.15,29.17,2.01,39.36,1.87c7.11-0.09,13.82-0.18,21.67,0.56
							c6.7,0.62,15.89,2.84,21.67,9.83c4.6,5.56,6.45,13.41,5.5,23.32c-0.25,2.66,1.7,5.03,4.37,5.3c0.16,0.01,0.32,0.02,0.47,0.02
							c2.47,0,4.59-1.88,4.83-4.39c1.21-12.57-1.38-22.8-7.68-30.42c-6.25-7.56-16.01-12.16-28.24-13.31
							c-8.36-0.79-15.33-0.7-22.7-0.6c-9.87,0.13-21.07,0.27-38.05-1.81c-7.77-0.95-12.81-3.62-14.98-7.93
							c-3.25-6.45-0.29-16.55,3.55-23.97c12.55-3.44,26.67-5.22,39.29-5.22c20.36,0,36.04,4.43,39.95,11.29
							c0.66,1.15,1.77,1.99,3.06,2.31c1.29,0.32,2.66,0.09,3.78-0.63c4.3-2.77,10-4.17,16.92-4.17c22.36,0,50.64,14.41,65.77,33.52
							c6.2,7.82,12.85,19.85,10.85,33.91c-6.5,2.92-29.81,2.01-38.56-5.77c-2.01-1.78-5.07-1.6-6.85,0.41
							c-1.78,2-1.6,5.07,0.41,6.85c7.41,6.59,21.69,9.68,33.6,9.68c1.53,0,3.01-0.05,4.44-0.15c4.03-0.29,7.4-0.93,10.07-1.94
							c0.43,0.1,0.88,0.13,1.33,0.1c0.25-0.02,0.52-0.02,0.77-0.02c9.21,0,20.43,11.08,26.67,26.35c4.99,12.19,7.06,28.4-2.05,37.35
							c-0.01,0.01-0.02,0.02-0.03,0.03c-4.7,4.69-28.74,9.15-81.05,6.27c-43.68-2.4-83.93,15.87-89.74,40.74
							c-0.61,2.61,1.01,5.22,3.62,5.83c0.37,0.09,0.75,0.13,1.11,0.13c2.2,0,4.2-1.51,4.72-3.75c4.62-19.8,41.92-35.33,79.76-33.26
							c29.56,1.63,65.7,1.83,82.15-5.15C342.88,179.9,341.57,186.53,337.5,192.46z"/>
					</g>
				</g>
				<g>
					<g id="XMLID_00000068667112045153698290000014610289124946972078_">
						<path class="st4" d="M351.93,120.86c-5.93-14.51-17.52-29.13-31.07-31.91c1.5-13.45-2.95-27.12-13.03-39.85
							c-17.08-21.55-47.94-37.19-73.38-37.19c-6.95,0-13.07,1.19-18.23,3.56C205.53,4.4,181.38,3.11,170.72,3.11
							c-13.99,0-29.74,1.96-43.82,6.06c-14.58,4.25-27.37,10.78-34.59,19.82c-3.12-0.5-6.25-0.75-9.33-0.75
							c-33.7,0-60.02,29.5-71.15,58.73c-6.44,16.9-6.94,31.69-1.63,40.11c-8.14,12.39-9.43,29.68-2.91,43.48
							c6.85,14.47,20.76,22.44,38.24,21.68c10.04,16.98,28.77,25.58,55.74,25.58c1.26,0,2.55-0.02,3.89-0.05
							c7.83,19.59,24.48,29.51,49.54,29.51c11.92,0,24.37-2.12,36.04-4.4c3.14-0.62,5.56,0.13,7.84,2.42
							c6.52,6.56,8.87,23.12,8.82,32.01c-0.03,5.46,1.81,10.23,5.34,13.77c3.66,3.68,9.01,5.8,14.66,5.8
							c5.97,0,11.57-2.3,15.36-6.32c3.67-3.89,5.43-9.06,5.09-14.95c-0.08-1.28-0.16-2.59-0.25-3.91
							c-1.09-16.48-1.09-27.39,8.63-28.85c2.22-0.33,4.45-0.58,6.68-0.82c13.57-1.49,28.86-3.18,39.04-24.15
							c1.1,0.09,2.22,0.13,3.34,0.13c15.8,0,31.95-8.07,40.2-20.07c4.54-6.61,8.78-17.29,4.32-31.49
							C359.96,154.01,357.72,135.04,351.93,120.86z M337.5,192.46c-6.41,9.33-19.65,15.86-32.2,15.86c-1.89,0-3.74-0.15-5.47-0.45
							c-2.23-0.38-4.43,0.82-5.3,2.91c-7.92,18.9-18.85,20.1-32.67,21.62c-2.35,0.26-4.71,0.52-7.06,0.87
							c-19.27,2.89-17.89,23.81-16.87,39.09c0.08,1.3,0.17,2.58,0.24,3.83c0.19,3.2-0.64,5.79-2.46,7.72
							c-1.97,2.08-4.99,3.28-8.3,3.28c-3.09,0-5.92-1.07-7.78-2.94c-1.69-1.7-2.54-4.01-2.52-6.87c0.01-1.1,0.02-27.19-11.64-38.91
							c-3.57-3.59-7.98-5.49-12.75-5.49c-1.24,0-2.54,0.13-3.83,0.39c-11.2,2.19-23.08,4.22-34.18,4.22
							c-22.35,0-35.55-8.28-41.5-26.05l-0.05-0.24c-2.79-13.81-4.81-23.8-0.94-31.15c7.73-14.7,25.98-14.7,49.08-14.7
							c29.34,0,45.84-8.78,49.05-26.11c0.33-1.75,0.46-3.55,0.42-5.36c2.52-3.62,7.24-3.6,17.43-2.71c2.09,0.18,4.25,0.37,6.48,0.5
							c4.56,0.27,9.28,0.76,13.84,1.24c16.73,1.75,32.55,3.4,40.28-6.08c1.7-2.08,1.38-5.14-0.69-6.83
							c-2.07-1.69-5.13-1.38-6.83,0.69c-4.42,5.42-18.31,3.97-31.75,2.57c-4.67-0.49-9.5-0.99-14.28-1.27
							c-2.13-0.13-4.2-0.31-6.2-0.49c-7.27-0.64-14.71-1.3-20.51,1.7c-1.53-3.8-3.8-7.39-6.72-10.48
							c-9.54-10.07-24.94-14.31-43.36-11.93c-2.66,0.35-4.54,2.78-4.19,5.43c0.34,2.66,2.78,4.53,5.43,4.19
							c15.27-1.97,27.72,1.21,35.07,8.98c4.15,4.39,5.9,9.35,6.24,13.55c0.13,1.66,0.05,3.19-0.2,4.53
							c-2.23,12.05-15.53,18.17-39.51,18.17c-24.27,0-47.21,0-57.67,19.88c-4.85,9.22-3.51,19.68-1,32.49
							c-0.46,0.01-0.92,0.01-1.36,0.01c-24.83,0-40.75-7.57-48.66-23.15c-0.91-1.79-2.81-2.83-4.82-2.63
							c-14.78,1.52-26.2-4.26-31.72-15.93c-5.56-11.77-3.91-26.74,4.02-36.41c0.08-0.1,0.15-0.19,0.22-0.3
							c0.02-0.02,0.03-0.04,0.05-0.07c9.89-14.11,21.82-22.58,36.47-25.88c9.23-2.09,20.43-3.19,30.46-3.29
							c10.43-0.11,19.6,0.87,24.03,2.95c4.4,2.07,9.54,9.67,9.86,17.26c0.25,5.86-2.38,10.43-7.81,13.58
							c-15.98,9.28-38.86,5.51-51.14,3.48l-2.68-0.44c-2.66-0.42-5.13,1.39-5.55,4.03c-0.42,2.65,1.39,5.14,4.04,5.56l2.61,0.42
							c6.61,1.09,16.01,2.64,26.12,2.64c10.52,0,21.79-1.68,31.47-7.3c8.55-4.97,13.04-12.92,12.63-22.39
							c-0.45-10.51-7.23-21.76-15.42-25.62c-5.22-2.46-13.88-3.66-23.56-3.86c0.03-8.99,3.26-17.67,6.79-21.93
							c1.9-2.3,3.18-2.56,3.52-2.58c2.67-0.19,4.69-2.51,4.49-5.19c-0.19-2.67-2.51-4.67-5.19-4.49c-3.67,0.27-7.24,2.37-10.31,6.07
							c-5.57,6.73-9,17.77-9.02,28.23c-9.63,0.39-19.48,1.6-27.5,3.42c-14.92,3.37-27.35,11.22-37.81,23.9
							c-1.43-5.78-0.72-15.35,4.01-27.76c9.95-26.12,33-52.48,62.08-52.48c3.45,0,6.97,0.38,10.46,1.12
							c1.98,0.42,4.02-0.42,5.11-2.14c3.84-6.01,11.31-10.96,20.62-14.78c-2.41,7.18-3.89,16.39,0.05,24.21
							c3.71,7.39,11.28,11.83,22.46,13.2c17.63,2.15,29.17,2.01,39.36,1.87c7.11-0.09,13.82-0.18,21.67,0.56
							c6.7,0.62,15.89,2.84,21.67,9.83c4.6,5.56,6.45,13.41,5.5,23.32c-0.25,2.66,1.7,5.03,4.37,5.3c0.16,0.01,0.32,0.02,0.47,0.02
							c2.47,0,4.59-1.88,4.83-4.39c1.21-12.57-1.38-22.8-7.68-30.42c-6.25-7.56-16.01-12.16-28.24-13.31
							c-8.36-0.79-15.33-0.7-22.7-0.6c-9.87,0.13-21.07,0.27-38.05-1.81c-7.77-0.95-12.81-3.62-14.98-7.93
							c-3.25-6.45-0.29-16.55,3.55-23.97c12.55-3.44,26.67-5.22,39.29-5.22c20.36,0,36.04,4.43,39.95,11.29
							c0.66,1.15,1.77,1.99,3.06,2.31c1.29,0.32,2.66,0.09,3.78-0.63c4.3-2.77,10-4.17,16.92-4.17c22.36,0,50.64,14.41,65.77,33.52
							c6.2,7.82,12.85,19.85,10.85,33.91c-6.5,2.92-29.81,2.01-38.56-5.77c-2.01-1.78-5.07-1.6-6.85,0.41
							c-1.78,2-1.6,5.07,0.41,6.85c7.41,6.59,21.69,9.68,33.6,9.68c1.53,0,3.01-0.05,4.44-0.15c4.03-0.29,7.4-0.93,10.07-1.94
							c0.43,0.1,0.88,0.13,1.33,0.1c0.25-0.02,0.52-0.02,0.77-0.02c9.21,0,20.43,11.08,26.67,26.35c4.99,12.19,7.06,28.4-2.05,37.35
							c-0.01,0.01-0.02,0.02-0.03,0.03c-4.7,4.69-28.74,9.15-81.05,6.27c-43.68-2.4-83.93,15.87-89.74,40.74
							c-0.61,2.61,1.01,5.22,3.62,5.83c0.37,0.09,0.75,0.13,1.11,0.13c2.2,0,4.2-1.51,4.72-3.75c4.62-19.8,41.92-35.33,79.76-33.26
							c29.56,1.63,65.7,1.83,82.15-5.15C342.88,179.9,341.57,186.53,337.5,192.46z"/>
					</g>
				</g>
			</g>
		</g>
	</g>
</g>
</svg>
