<?xml version="1.0" encoding="utf-8"?>
<!-- Generator: Adobe Illustrator 25.4.1, SVG Export Plug-In . SVG Version: 6.00 Build 0)  -->
<svg version="1.1" id="レイヤー_1" xmlns="http://www.w3.org/2000/svg" xmlns:xlink="http://www.w3.org/1999/xlink" x="0px"
	 y="0px" viewBox="0 0 360 300" style="enable-background:new 0 0 360 300;" xml:space="preserve">
<style type="text/css">
	.st0{display:none;fill:#CCCCCC;}
	.st1{fill:#1A8BAC;}
	.st2{fill:#333333;}
	.st3{fill:#FFFFFF;}
	.st4{opacity:0.7;fill:#ABDCD6;enable-background:new    ;}
	.st5{fill:#231815;}
</style>
<g id="PC">
	<rect x="-1544.1" y="5809" class="st0" width="375.9" height="588"/>
</g>
<g id="スマホ">
</g>
<g id="ナビ">
</g>
<g id="レイヤー_4">
	<g>
		<g>
			<g>
				<path class="st1" d="M146.4,135.5l-1.2-1.5c-2.8-3.4-6.9-5.4-11.2-5.4l-8.8-0.1l-4-7.8l-0.9-7.9c-0.7-5.9-4.9-10.9-10.6-12.5
					l-4.6-1.3c-1.9-0.6-3.9-0.7-5.9-0.5L59,97.3c-1.1,0.1-2.2,0.4-3.2,0.8l-31.3,17.4c-4.7,1.7-8.2,5.6-9.4,10.4
					c-2.4,10-6.5,26.2-7.7,28.1c-1.3,2.1,9,17.2,13.6,23.7c1.4,1.9,3.2,3.5,5.3,4.6L45,192c0.3,0.2,0.7,0.4,1,0.6l12.3,7.6
					c0,0,15,11.1,24.3,10.9s19.6,2.3,23.1,5.7c2.7,2.6,0.5-16-0.7-24.6c-0.4-2.8,0.1-5.6,1.3-8.2l4-8.5c1.7-3.7,4.8-6.5,8.7-7.8
					c8.9-3,24.8-8.2,26.8-8.9c1.6-0.6,2.9-6.5,3.7-11.4C150.3,143.2,149.2,138.8,146.4,135.5z"/>
				<g>
					<g>
						<g id="XMLID_00000149345295141973155990000014439574276948757641_">
							<path class="st2" d="M351.9,120.9c-5.9-14.5-17.5-29.1-31.1-31.9c1.5-13.4-3-27.1-13-39.8C290.7,27.7,259.9,12,234.4,12
								c-6.9,0-13.1,1.2-18.2,3.6C205.5,4.4,181.4,3.1,170.7,3.1c-14,0-29.7,2-43.8,6.1C112.3,13.4,99.5,20,92.3,29
								c-3.1-0.5-6.2-0.8-9.3-0.8c-33.7,0-60,29.5-71.2,58.7c-6.4,16.9-6.9,31.7-1.6,40.1c-8.1,12.4-9.4,29.7-2.9,43.5
								C14.1,185,28,193,45.5,192.2c10,17,28.8,25.6,55.7,25.6c1.3,0,2.6,0,3.9-0.1c7.8,19.6,24.5,29.5,49.5,29.5
								c11.9,0,24.4-2.1,36-4.4c3.1-0.6,5.6,0.1,7.8,2.4c6.5,6.6,8.9,23.1,8.8,32c0,5.5,1.8,10.2,5.3,13.8c3.7,3.7,9,5.8,14.7,5.8
								c6,0,11.6-2.3,15.4-6.3c3.7-3.9,5.4-9.1,5.1-15c-0.1-1.3-0.2-2.6-0.2-3.9c-1.1-16.5-1.1-27.4,8.6-28.9
								c2.2-0.3,4.5-0.6,6.7-0.8c13.6-1.5,28.9-3.2,39-24.1c1.1,0.1,2.2,0.1,3.3,0.1c15.8,0,32-8.1,40.2-20.1
								c4.5-6.6,8.8-17.3,4.3-31.5C360,154,357.7,135,351.9,120.9z M337.5,192.5c-6.4,9.3-19.6,15.9-32.2,15.9
								c-1.9,0-3.7-0.1-5.5-0.4c-2.2-0.4-4.4,0.8-5.3,2.9c-7.9,18.9-18.9,20.1-32.7,21.6c-2.4,0.3-4.7,0.5-7.1,0.9
								c-19.3,2.9-17.9,23.8-16.9,39.1c0.1,1.3,0.2,2.6,0.2,3.8c0.2,3.2-0.6,5.8-2.5,7.7c-2,2.1-5,3.3-8.3,3.3
								c-3.1,0-5.9-1.1-7.8-2.9c-1.7-1.7-2.5-4-2.5-6.9c0-1.1,0-27.2-11.6-38.9c-3.6-3.6-8-5.5-12.8-5.5c-1.2,0-2.5,0.1-3.8,0.4
								c-11.2,2.2-23.1,4.2-34.2,4.2c-22.4,0-35.6-8.3-41.5-26.1l-0.1-0.2c-2.8-13.8-4.8-23.8-0.9-31.1c7.7-14.7,26-14.7,49.1-14.7
								c29.3,0,45.8-8.8,49.1-26.1c0.3-1.8,0.5-3.6,0.4-5.4c2.5-3.6,7.2-3.6,17.4-2.7c2.1,0.2,4.2,0.4,6.5,0.5
								c4.6,0.3,9.3,0.8,13.8,1.2c16.7,1.8,32.6,3.4,40.3-6.1c1.7-2.1,1.4-5.1-0.7-6.8s-5.1-1.4-6.8,0.7c-4.4,5.4-18.3,4-31.8,2.6
								c-4.7-0.5-9.5-1-14.3-1.3c-2.1-0.1-4.2-0.3-6.2-0.5c-7.3-0.6-14.7-1.3-20.5,1.7c-1.5-3.8-3.8-7.4-6.7-10.5
								c-9.5-10.1-24.9-14.3-43.4-11.9c-2.7,0.3-4.5,2.8-4.2,5.4c0.3,2.7,2.8,4.5,5.4,4.2c15.3-2,27.7,1.2,35.1,9
								c4.1,4.4,5.9,9.4,6.2,13.6c0.1,1.7,0.1,3.2-0.2,4.5c-2.2,12.1-15.5,18.2-39.5,18.2c-24.3,0-47.2,0-57.7,19.9
								c-4.8,9.2-3.5,19.7-1,32.5c-0.5,0-0.9,0-1.4,0c-24.8,0-40.8-7.6-48.7-23.1c-0.9-1.8-2.8-2.8-4.8-2.6
								c-14.8,1.5-26.2-4.3-31.7-15.9c-5.6-11.8-3.9-26.7,4-36.4c0.1-0.1,0.1-0.2,0.2-0.3c0,0,0,0,0-0.1
								c9.9-14.1,21.8-22.6,36.5-25.9c9.2-2.1,20.4-3.2,30.5-3.3c10.4-0.1,19.6,0.9,24,2.9c4.4,2.1,9.5,9.7,9.9,17.3
								c0.2,5.9-2.4,10.4-7.8,13.6c-16,9.3-38.9,5.5-51.1,3.5l-2.7-0.4c-2.7-0.4-5.1,1.4-5.5,4s1.4,5.1,4,5.6l2.6,0.4
								c6.6,1.1,16,2.6,26.1,2.6c10.5,0,21.8-1.7,31.5-7.3c8.6-5,13-12.9,12.6-22.4c-0.4-10.5-7.2-21.8-15.4-25.6
								c-5.2-2.5-13.9-3.7-23.6-3.9c0-9,3.3-17.7,6.8-21.9c1.9-2.3,3.2-2.6,3.5-2.6c2.7-0.2,4.7-2.5,4.5-5.2s-2.5-4.7-5.2-4.5
								c-3.7,0.3-7.2,2.4-10.3,6.1c-5.6,6.7-9,17.8-9,28.2c-9.6,0.4-19.5,1.6-27.5,3.4c-14.9,3.4-27.4,11.2-37.8,23.9
								c-1.4-5.8-0.7-15.3,4-27.8C30.8,64.3,53.9,38,83,38c3.4,0,7,0.4,10.5,1.1c2,0.4,4-0.4,5.1-2.1c3.8-6,11.3-11,20.6-14.8
								c-2.4,7.2-3.9,16.4,0.1,24.2c3.7,7.4,11.3,11.8,22.5,13.2c17.6,2.2,29.2,2,39.4,1.9c7.1-0.1,13.8-0.2,21.7,0.6
								c6.7,0.6,15.9,2.8,21.7,9.8c4.6,5.6,6.4,13.4,5.5,23.3c-0.2,2.7,1.7,5,4.4,5.3c0.2,0,0.3,0,0.5,0c2.5,0,4.6-1.9,4.8-4.4
								c1.2-12.6-1.4-22.8-7.7-30.4c-6.2-7.6-16-12.2-28.2-13.3c-8.4-0.8-15.3-0.7-22.7-0.6c-9.9,0.1-21.1,0.3-38.1-1.8
								c-7.8-1-12.8-3.6-15-7.9c-3.2-6.5-0.3-16.5,3.6-24c12.6-3.4,26.7-5.2,39.3-5.2c20.4,0,36,4.4,39.9,11.3
								c0.7,1.1,1.8,2,3.1,2.3s2.7,0.1,3.8-0.6c4.3-2.8,10-4.2,16.9-4.2c22.4,0,50.6,14.4,65.8,33.5C306.4,63,313,75,311,89
								c-6.5,2.9-29.8,2-38.6-5.8c-2-1.8-5.1-1.6-6.9,0.4s-1.6,5.1,0.4,6.8c7.4,6.6,21.7,9.7,33.6,9.7c1.5,0,3-0.1,4.4-0.2
								c4-0.3,7.4-0.9,10.1-1.9c0.4,0.1,0.9,0.1,1.3,0.1c0.2,0,0.5,0,0.8,0c9.2,0,20.4,11.1,26.7,26.3c5,12.2,7.1,28.4-2,37.3l0,0
								c-4.7,4.7-28.7,9.1-81,6.3c-43.7-2.4-83.9,15.9-89.7,40.7c-0.6,2.6,1,5.2,3.6,5.8c0.4,0.1,0.8,0.1,1.1,0.1
								c2.2,0,4.2-1.5,4.7-3.8c4.6-19.8,41.9-35.3,79.8-33.3c29.6,1.6,65.7,1.8,82.1-5.1C342.9,179.9,341.6,186.5,337.5,192.5z"/>
						</g>
					</g>
					<g>
						<g id="XMLID_00000068667112045153698290000014610289124946972078_">
							<path class="st3" d="M351.9,120.9c-5.9-14.5-17.5-29.1-31.1-31.9c1.5-13.4-3-27.1-13-39.8C290.7,27.7,259.9,12,234.4,12
								c-6.9,0-13.1,1.2-18.2,3.6C205.5,4.4,181.4,3.1,170.7,3.1c-14,0-29.7,2-43.8,6.1C112.3,13.4,99.5,20,92.3,29
								c-3.1-0.5-6.2-0.8-9.3-0.8c-33.7,0-60,29.5-71.2,58.7c-6.4,16.9-6.9,31.7-1.6,40.1c-8.1,12.4-9.4,29.7-2.9,43.5
								C14.1,185,28,193,45.5,192.2c10,17,28.8,25.6,55.7,25.6c1.3,0,2.6,0,3.9-0.1c7.8,19.6,24.5,29.5,49.5,29.5
								c11.9,0,24.4-2.1,36-4.4c3.1-0.6,5.6,0.1,7.8,2.4c6.5,6.6,8.9,23.1,8.8,32c0,5.5,1.8,10.2,5.3,13.8c3.7,3.7,9,5.8,14.7,5.8
								c6,0,11.6-2.3,15.4-6.3c3.7-3.9,5.4-9.1,5.1-15c-0.1-1.3-0.2-2.6-0.2-3.9c-1.1-16.5-1.1-27.4,8.6-28.9
								c2.2-0.3,4.5-0.6,6.7-0.8c13.6-1.5,28.9-3.2,39-24.1c1.1,0.1,2.2,0.1,3.3,0.1c15.8,0,32-8.1,40.2-20.1
								c4.5-6.6,8.8-17.3,4.3-31.5C360,154,357.7,135,351.9,120.9z M337.5,192.5c-6.4,9.3-19.6,15.9-32.2,15.9
								c-1.9,0-3.7-0.1-5.5-0.4c-2.2-0.4-4.4,0.8-5.3,2.9c-7.9,18.9-18.9,20.1-32.7,21.6c-2.4,0.3-4.7,0.5-7.1,0.9
								c-19.3,2.9-17.9,23.8-16.9,39.1c0.1,1.3,0.2,2.6,0.2,3.8c0.2,3.2-0.6,5.8-2.5,7.7c-2,2.1-5,3.3-8.3,3.3
								c-3.1,0-5.9-1.1-7.8-2.9c-1.7-1.7-2.5-4-2.5-6.9c0-1.1,0-27.2-11.6-38.9c-3.6-3.6-8-5.5-12.8-5.5c-1.2,0-2.5,0.1-3.8,0.4
								c-11.2,2.2-23.1,4.2-34.2,4.2c-22.4,0-35.6-8.3-41.5-26.1l-0.1-0.2c-2.8-13.8-4.8-23.8-0.9-31.1c7.7-14.7,26-14.7,49.1-14.7
								c29.3,0,45.8-8.8,49.1-26.1c0.3-1.8,0.5-3.6,0.4-5.4c2.5-3.6,7.2-3.6,17.4-2.7c2.1,0.2,4.2,0.4,6.5,0.5
								c4.6,0.3,9.3,0.8,13.8,1.2c16.7,1.8,32.6,3.4,40.3-6.1c1.7-2.1,1.4-5.1-0.7-6.8s-5.1-1.4-6.8,0.7c-4.4,5.4-18.3,4-31.8,2.6
								c-4.7-0.5-9.5-1-14.3-1.3c-2.1-0.1-4.2-0.3-6.2-0.5c-7.3-0.6-14.7-1.3-20.5,1.7c-1.5-3.8-3.8-7.4-6.7-10.5
								c-9.5-10.1-24.9-14.3-43.4-11.9c-2.7,0.3-4.5,2.8-4.2,5.4c0.3,2.7,2.8,4.5,5.4,4.2c15.3-2,27.7,1.2,35.1,9
								c4.1,4.4,5.9,9.4,6.2,13.6c0.1,1.7,0.1,3.2-0.2,4.5c-2.2,12.1-15.5,18.2-39.5,18.2c-24.3,0-47.2,0-57.7,19.9
								c-4.8,9.2-3.5,19.7-1,32.5c-0.5,0-0.9,0-1.4,0c-24.8,0-40.8-7.6-48.7-23.1c-0.9-1.8-2.8-2.8-4.8-2.6
								c-14.8,1.5-26.2-4.3-31.7-15.9c-5.6-11.8-3.9-26.7,4-36.4c0.1-0.1,0.1-0.2,0.2-0.3c0,0,0,0,0-0.1
								c9.9-14.1,21.8-22.6,36.5-25.9c9.2-2.1,20.4-3.2,30.5-3.3c10.4-0.1,19.6,0.9,24,2.9c4.4,2.1,9.5,9.7,9.9,17.3
								c0.2,5.9-2.4,10.4-7.8,13.6c-16,9.3-38.9,5.5-51.1,3.5l-2.7-0.4c-2.7-0.4-5.1,1.4-5.5,4s1.4,5.1,4,5.6l2.6,0.4
								c6.6,1.1,16,2.6,26.1,2.6c10.5,0,21.8-1.7,31.5-7.3c8.6-5,13-12.9,12.6-22.4c-0.4-10.5-7.2-21.8-15.4-25.6
								c-5.2-2.5-13.9-3.7-23.6-3.9c0-9,3.3-17.7,6.8-21.9c1.9-2.3,3.2-2.6,3.5-2.6c2.7-0.2,4.7-2.5,4.5-5.2s-2.5-4.7-5.2-4.5
								c-3.7,0.3-7.2,2.4-10.3,6.1c-5.6,6.7-9,17.8-9,28.2c-9.6,0.4-19.5,1.6-27.5,3.4c-14.9,3.4-27.4,11.2-37.8,23.9
								c-1.4-5.8-0.7-15.3,4-27.8C30.8,64.3,53.9,38,83,38c3.4,0,7,0.4,10.5,1.1c2,0.4,4-0.4,5.1-2.1c3.8-6,11.3-11,20.6-14.8
								c-2.4,7.2-3.9,16.4,0.1,24.2c3.7,7.4,11.3,11.8,22.5,13.2c17.6,2.2,29.2,2,39.4,1.9c7.1-0.1,13.8-0.2,21.7,0.6
								c6.7,0.6,15.9,2.8,21.7,9.8c4.6,5.6,6.4,13.4,5.5,23.3c-0.2,2.7,1.7,5,4.4,5.3c0.2,0,0.3,0,0.5,0c2.5,0,4.6-1.9,4.8-4.4
								c1.2-12.6-1.4-22.8-7.7-30.4c-6.2-7.6-16-12.2-28.2-13.3c-8.4-0.8-15.3-0.7-22.7-0.6c-9.9,0.1-21.1,0.3-38.1-1.8
								c-7.8-1-12.8-3.6-15-7.9c-3.2-6.5-0.3-16.5,3.6-24c12.6-3.4,26.7-5.2,39.3-5.2c20.4,0,36,4.4,39.9,11.3
								c0.7,1.1,1.8,2,3.1,2.3s2.7,0.1,3.8-0.6c4.3-2.8,10-4.2,16.9-4.2c22.4,0,50.6,14.4,65.8,33.5C306.4,63,313,75,311,89
								c-6.5,2.9-29.8,2-38.6-5.8c-2-1.8-5.1-1.6-6.9,0.4s-1.6,5.1,0.4,6.8c7.4,6.6,21.7,9.7,33.6,9.7c1.5,0,3-0.1,4.4-0.2
								c4-0.3,7.4-0.9,10.1-1.9c0.4,0.1,0.9,0.1,1.3,0.1c0.2,0,0.5,0,0.8,0c9.2,0,20.4,11.1,26.7,26.3c5,12.2,7.1,28.4-2,37.3l0,0
								c-4.7,4.7-28.7,9.1-81,6.3c-43.7-2.4-83.9,15.9-89.7,40.7c-0.6,2.6,1,5.2,3.6,5.8c0.4,0.1,0.8,0.1,1.1,0.1
								c2.2,0,4.2-1.5,4.7-3.8c4.6-19.8,41.9-35.3,79.8-33.3c29.6,1.6,65.7,1.8,82.1-5.1C342.9,179.9,341.6,186.5,337.5,192.5z"/>
						</g>
					</g>
				</g>
			</g>
		</g>
	</g>
</g>
<g id="レイヤー_4_00000047777078451415484260000006302948627202447012_">
	<g>
		<path class="st4" d="M-215.8,20.4c0,0-73.2-34.6-118.4,12.9c-28.5,2.2-74.3,4.5-81.6,86.6c-1.7,15.1-20.1,65.4,33.5,68.2
			c7.3,8.4,11.2,30.7,59.8,23.5c3.9,11.2,19,39.7,87.1,27.9c4.5,1.7,17.3,11.7,17.9,29s5,26.3,16.8,25.1c11.2-5,15.1-22.4,15.1-33
			s-1.7-18.4,9.5-20.1s38.5-11.2,44.1-26.3c9.5-2.8,48,0,48-47.5c3.9-16.8,13.4-60.3-26.8-72.6c-5.6-17.3-3.9-48.6-40.8-63.1
			C-169.5,20.4-201.3,15.4-215.8,20.4z"/>
		<g>
			<g>
				<path class="st1" d="M-283.5,135.5l-1.2-1.5c-2.8-3.4-6.9-5.4-11.2-5.4l-8.8-0.1l-4-7.8l-0.9-7.9c-0.7-5.9-4.9-10.9-10.6-12.5
					l-4.6-1.3c-1.9-0.6-3.9-0.7-5.9-0.5l-40.2-1.2c-1.1,0.1-2.2,0.4-3.2,0.8l-31.3,17.4c-4.7,1.7-8.2,5.6-9.4,10.4
					c-2.4,10-6.5,26.2-7.7,28.1c-1.3,2.1,9,17.2,13.6,23.7c1.4,1.9,3.2,3.5,5.3,4.6l18.7,9.6c0.3,0.2,0.7,0.4,1,0.6l12.3,7.6
					c0,0,15,11.1,24.3,10.9c9.3-0.2,19.6,2.3,23.1,5.7c2.7,2.6,0.5-16-0.7-24.6c-0.4-2.8,0.1-5.6,1.3-8.2l4-8.5
					c1.7-3.7,4.8-6.5,8.7-7.8c8.9-3,24.8-8.2,26.8-8.9c1.6-0.6,2.9-6.5,3.7-11.4C-279.7,143.2-280.8,138.8-283.5,135.5z"/>
				<g>
					<g>
						<g id="XMLID_00000093868037456748993250000008644985411583929014_">
							<path class="st2" d="M-78.1,120.9C-84,106.4-95.6,91.8-109.2,89c1.5-13.4-3-27.1-13-39.8C-139.3,27.7-170.1,12-195.6,12
								c-6.9,0-13.1,1.2-18.2,3.6c-10.7-11.1-34.8-12.4-45.5-12.4c-14,0-29.7,2-43.8,6.1c-14.6,4.2-27.4,10.8-34.6,19.8
								c-3.1-0.5-6.2-0.8-9.3-0.8c-33.7,0-60,29.5-71.1,58.7c-6.4,16.9-6.9,31.7-1.6,40.1c-8.1,12.4-9.4,29.7-2.9,43.5
								c6.8,14.5,20.8,22.4,38.2,21.7c10,17,28.8,25.6,55.7,25.6c1.3,0,2.6,0,3.9-0.1c7.8,19.6,24.5,29.5,49.5,29.5
								c11.9,0,24.4-2.1,36-4.4c3.1-0.6,5.6,0.1,7.8,2.4c6.5,6.6,8.9,23.1,8.8,32c0,5.5,1.8,10.2,5.3,13.8c3.7,3.7,9,5.8,14.7,5.8
								c6,0,11.6-2.3,15.4-6.3c3.7-3.9,5.4-9.1,5.1-15c-0.1-1.3-0.2-2.6-0.2-3.9c-1.1-16.5-1.1-27.4,8.6-28.9
								c2.2-0.3,4.5-0.6,6.7-0.8c13.6-1.5,28.9-3.2,39-24.1c1.1,0.1,2.2,0.1,3.3,0.1c15.8,0,32-8.1,40.2-20.1
								c4.5-6.6,8.8-17.3,4.3-31.5C-70,154-72.3,135-78.1,120.9z M-92.5,192.5c-6.4,9.3-19.6,15.9-32.2,15.9c-1.9,0-3.7-0.1-5.5-0.4
								c-2.2-0.4-4.4,0.8-5.3,2.9c-7.9,18.9-18.9,20.1-32.7,21.6c-2.4,0.3-4.7,0.5-7.1,0.9c-19.3,2.9-17.9,23.8-16.9,39.1
								c0.1,1.3,0.2,2.6,0.2,3.8c0.2,3.2-0.6,5.8-2.5,7.7c-2,2.1-5,3.3-8.3,3.3c-3.1,0-5.9-1.1-7.8-2.9c-1.7-1.7-2.5-4-2.5-6.9
								c0-1.1,0-27.2-11.6-38.9c-3.6-3.6-8-5.5-12.8-5.5c-1.2,0-2.5,0.1-3.8,0.4c-11.2,2.2-23.1,4.2-34.2,4.2
								c-22.4,0-35.6-8.3-41.5-26.1l-0.1-0.2c-2.8-13.8-4.8-23.8-0.9-31.1c7.7-14.7,26-14.7,49.1-14.7c29.3,0,45.8-8.8,49.1-26.1
								c0.3-1.8,0.5-3.6,0.4-5.4c2.5-3.6,7.2-3.6,17.4-2.7c2.1,0.2,4.2,0.4,6.5,0.5c4.6,0.3,9.3,0.8,13.8,1.2
								c16.7,1.8,32.6,3.4,40.3-6.1c1.7-2.1,1.4-5.1-0.7-6.8s-5.1-1.4-6.8,0.7c-4.4,5.4-18.3,4-31.8,2.6c-4.7-0.5-9.5-1-14.3-1.3
								c-2.1-0.1-4.2-0.3-6.2-0.5c-7.3-0.6-14.7-1.3-20.5,1.7c-1.5-3.8-3.8-7.4-6.7-10.5c-9.5-10.1-24.9-14.3-43.4-11.9
								c-2.7,0.3-4.5,2.8-4.2,5.4c0.3,2.7,2.8,4.5,5.4,4.2c15.3-2,27.7,1.2,35.1,9c4.1,4.4,5.9,9.4,6.2,13.6
								c0.1,1.7,0.1,3.2-0.2,4.5c-2.2,12.1-15.5,18.2-39.5,18.2c-24.3,0-47.2,0-57.7,19.9c-4.9,9.2-3.5,19.7-1,32.5
								c-0.5,0-0.9,0-1.4,0c-24.8,0-40.8-7.6-48.7-23.1c-0.9-1.8-2.8-2.8-4.8-2.6c-14.8,1.5-26.2-4.3-31.7-15.9
								c-5.6-11.8-3.9-26.7,4-36.4c0.1-0.1,0.1-0.2,0.2-0.3c0,0,0,0,0.1-0.1c9.9-14.1,21.8-22.6,36.5-25.9
								c9.2-2.1,20.4-3.2,30.5-3.3c10.4-0.1,19.6,0.9,24,2.9c4.4,2.1,9.5,9.7,9.9,17.3c0.2,5.9-2.4,10.4-7.8,13.6
								c-16,9.3-38.9,5.5-51.1,3.5l-2.7-0.4c-2.7-0.4-5.1,1.4-5.6,4c-0.4,2.6,1.4,5.1,4,5.6l2.6,0.4c6.6,1.1,16,2.6,26.1,2.6
								c10.5,0,21.8-1.7,31.5-7.3c8.5-5,13-12.9,12.6-22.4c-0.4-10.5-7.2-21.8-15.4-25.6c-5.2-2.5-13.9-3.7-23.6-3.9
								c0-9,3.3-17.7,6.8-21.9c1.9-2.3,3.2-2.6,3.5-2.6c2.7-0.2,4.7-2.5,4.5-5.2s-2.5-4.7-5.2-4.5c-3.7,0.3-7.2,2.4-10.3,6.1
								c-5.6,6.7-9,17.8-9,28.2c-9.6,0.4-19.5,1.6-27.5,3.4c-14.9,3.4-27.4,11.2-37.8,23.9c-1.4-5.8-0.7-15.3,4-27.8
								c9.9-26.1,33-52.5,62.1-52.5c3.5,0,7,0.4,10.5,1.1c2,0.4,4-0.4,5.1-2.1c3.8-6,11.3-11,20.6-14.8c-2.4,7.2-3.9,16.4,0,24.2
								c3.7,7.4,11.3,11.8,22.5,13.2c17.6,2.2,29.2,2,39.4,1.9c7.1-0.1,13.8-0.2,21.7,0.6c6.7,0.6,15.9,2.8,21.7,9.8
								c4.6,5.6,6.4,13.4,5.5,23.3c-0.2,2.7,1.7,5,4.4,5.3c0.2,0,0.3,0,0.5,0c2.5,0,4.6-1.9,4.8-4.4c1.2-12.6-1.4-22.8-7.7-30.4
								c-6.2-7.6-16-12.2-28.2-13.3c-8.4-0.8-15.3-0.7-22.7-0.6c-9.9,0.1-21.1,0.3-38-1.8c-7.8-1-12.8-3.6-15-7.9
								c-3.2-6.5-0.3-16.5,3.6-24c12.5-3.4,26.7-5.2,39.3-5.2c20.4,0,36,4.4,39.9,11.3c0.7,1.1,1.8,2,3.1,2.3s2.7,0.1,3.8-0.6
								c4.3-2.8,10-4.2,16.9-4.2c22.4,0,50.6,14.4,65.8,33.5C-123.6,63-117,75-119,89c-6.5,2.9-29.8,2-38.6-5.8
								c-2-1.8-5.1-1.6-6.9,0.4c-1.8,2-1.6,5.1,0.4,6.8c7.4,6.6,21.7,9.7,33.6,9.7c1.5,0,3-0.1,4.4-0.2c4-0.3,7.4-0.9,10.1-1.9
								c0.4,0.1,0.9,0.1,1.3,0.1c0.2,0,0.5,0,0.8,0c9.2,0,20.4,11.1,26.7,26.3c5,12.2,7.1,28.4-2,37.3l0,0c-4.7,4.7-28.7,9.1-81,6.3
								c-43.7-2.4-83.9,15.9-89.7,40.7c-0.6,2.6,1,5.2,3.6,5.8c0.4,0.1,0.8,0.1,1.1,0.1c2.2,0,4.2-1.5,4.7-3.8
								c4.6-19.8,41.9-35.3,79.8-33.3c29.6,1.6,65.7,1.8,82.1-5.1C-87.1,179.9-88.4,186.5-92.5,192.5z"/>
						</g>
					</g>
					<g>
						<g id="XMLID_00000161606484685595167250000017905209408526495405_">
							<path class="st5" d="M-78.1,120.9C-84,106.4-95.6,91.8-109.2,89c1.5-13.4-3-27.1-13-39.8C-139.3,27.7-170.1,12-195.6,12
								c-6.9,0-13.1,1.2-18.2,3.6c-10.7-11.1-34.8-12.4-45.5-12.4c-14,0-29.7,2-43.8,6.1c-14.6,4.2-27.4,10.8-34.6,19.8
								c-3.1-0.5-6.2-0.8-9.3-0.8c-33.7,0-60,29.5-71.1,58.7c-6.4,16.9-6.9,31.7-1.6,40.1c-8.1,12.4-9.4,29.7-2.9,43.5
								c6.8,14.5,20.8,22.4,38.2,21.7c10,17,28.8,25.6,55.7,25.6c1.3,0,2.6,0,3.9-0.1c7.8,19.6,24.5,29.5,49.5,29.5
								c11.9,0,24.4-2.1,36-4.4c3.1-0.6,5.6,0.1,7.8,2.4c6.5,6.6,8.9,23.1,8.8,32c0,5.5,1.8,10.2,5.3,13.8c3.7,3.7,9,5.8,14.7,5.8
								c6,0,11.6-2.3,15.4-6.3c3.7-3.9,5.4-9.1,5.1-15c-0.1-1.3-0.2-2.6-0.2-3.9c-1.1-16.5-1.1-27.4,8.6-28.9
								c2.2-0.3,4.5-0.6,6.7-0.8c13.6-1.5,28.9-3.2,39-24.1c1.1,0.1,2.2,0.1,3.3,0.1c15.8,0,32-8.1,40.2-20.1
								c4.5-6.6,8.8-17.3,4.3-31.5C-70,154-72.3,135-78.1,120.9z M-92.5,192.5c-6.4,9.3-19.6,15.9-32.2,15.9c-1.9,0-3.7-0.1-5.5-0.4
								c-2.2-0.4-4.4,0.8-5.3,2.9c-7.9,18.9-18.9,20.1-32.7,21.6c-2.4,0.3-4.7,0.5-7.1,0.9c-19.3,2.9-17.9,23.8-16.9,39.1
								c0.1,1.3,0.2,2.6,0.2,3.8c0.2,3.2-0.6,5.8-2.5,7.7c-2,2.1-5,3.3-8.3,3.3c-3.1,0-5.9-1.1-7.8-2.9c-1.7-1.7-2.5-4-2.5-6.9
								c0-1.1,0-27.2-11.6-38.9c-3.6-3.6-8-5.5-12.8-5.5c-1.2,0-2.5,0.1-3.8,0.4c-11.2,2.2-23.1,4.2-34.2,4.2
								c-22.4,0-35.6-8.3-41.5-26.1l-0.1-0.2c-2.8-13.8-4.8-23.8-0.9-31.1c7.7-14.7,26-14.7,49.1-14.7c29.3,0,45.8-8.8,49.1-26.1
								c0.3-1.8,0.5-3.6,0.4-5.4c2.5-3.6,7.2-3.6,17.4-2.7c2.1,0.2,4.2,0.4,6.5,0.5c4.6,0.3,9.3,0.8,13.8,1.2
								c16.7,1.8,32.6,3.4,40.3-6.1c1.7-2.1,1.4-5.1-0.7-6.8s-5.1-1.4-6.8,0.7c-4.4,5.4-18.3,4-31.8,2.6c-4.7-0.5-9.5-1-14.3-1.3
								c-2.1-0.1-4.2-0.3-6.2-0.5c-7.3-0.6-14.7-1.3-20.5,1.7c-1.5-3.8-3.8-7.4-6.7-10.5c-9.5-10.1-24.9-14.3-43.4-11.9
								c-2.7,0.3-4.5,2.8-4.2,5.4c0.3,2.7,2.8,4.5,5.4,4.2c15.3-2,27.7,1.2,35.1,9c4.1,4.4,5.9,9.4,6.2,13.6
								c0.1,1.7,0.1,3.2-0.2,4.5c-2.2,12.1-15.5,18.2-39.5,18.2c-24.3,0-47.2,0-57.7,19.9c-4.9,9.2-3.5,19.7-1,32.5
								c-0.5,0-0.9,0-1.4,0c-24.8,0-40.8-7.6-48.7-23.1c-0.9-1.8-2.8-2.8-4.8-2.6c-14.8,1.5-26.2-4.3-31.7-15.9
								c-5.6-11.8-3.9-26.7,4-36.4c0.1-0.1,0.1-0.2,0.2-0.3c0,0,0,0,0.1-0.1c9.9-14.1,21.8-22.6,36.5-25.9
								c9.2-2.1,20.4-3.2,30.5-3.3c10.4-0.1,19.6,0.9,24,2.9c4.4,2.1,9.5,9.7,9.9,17.3c0.2,5.9-2.4,10.4-7.8,13.6
								c-16,9.3-38.9,5.5-51.1,3.5l-2.7-0.4c-2.7-0.4-5.1,1.4-5.6,4c-0.4,2.6,1.4,5.1,4,5.6l2.6,0.4c6.6,1.1,16,2.6,26.1,2.6
								c10.5,0,21.8-1.7,31.5-7.3c8.5-5,13-12.9,12.6-22.4c-0.4-10.5-7.2-21.8-15.4-25.6c-5.2-2.5-13.9-3.7-23.6-3.9
								c0-9,3.3-17.7,6.8-21.9c1.9-2.3,3.2-2.6,3.5-2.6c2.7-0.2,4.7-2.5,4.5-5.2s-2.5-4.7-5.2-4.5c-3.7,0.3-7.2,2.4-10.3,6.1
								c-5.6,6.7-9,17.8-9,28.2c-9.6,0.4-19.5,1.6-27.5,3.4c-14.9,3.4-27.4,11.2-37.8,23.9c-1.4-5.8-0.7-15.3,4-27.8
								c9.9-26.1,33-52.5,62.1-52.5c3.5,0,7,0.4,10.5,1.1c2,0.4,4-0.4,5.1-2.1c3.8-6,11.3-11,20.6-14.8c-2.4,7.2-3.9,16.4,0,24.2
								c3.7,7.4,11.3,11.8,22.5,13.2c17.6,2.2,29.2,2,39.4,1.9c7.1-0.1,13.8-0.2,21.7,0.6c6.7,0.6,15.9,2.8,21.7,9.8
								c4.6,5.6,6.4,13.4,5.5,23.3c-0.2,2.7,1.7,5,4.4,5.3c0.2,0,0.3,0,0.5,0c2.5,0,4.6-1.9,4.8-4.4c1.2-12.6-1.4-22.8-7.7-30.4
								c-6.2-7.6-16-12.2-28.2-13.3c-8.4-0.8-15.3-0.7-22.7-0.6c-9.9,0.1-21.1,0.3-38-1.8c-7.8-1-12.8-3.6-15-7.9
								c-3.2-6.5-0.3-16.5,3.6-24c12.5-3.4,26.7-5.2,39.3-5.2c20.4,0,36,4.4,39.9,11.3c0.7,1.1,1.8,2,3.1,2.3s2.7,0.1,3.8-0.6
								c4.3-2.8,10-4.2,16.9-4.2c22.4,0,50.6,14.4,65.8,33.5C-123.6,63-117,75-119,89c-6.5,2.9-29.8,2-38.6-5.8
								c-2-1.8-5.1-1.6-6.9,0.4c-1.8,2-1.6,5.1,0.4,6.8c7.4,6.6,21.7,9.7,33.6,9.7c1.5,0,3-0.1,4.4-0.2c4-0.3,7.4-0.9,10.1-1.9
								c0.4,0.1,0.9,0.1,1.3,0.1c0.2,0,0.5,0,0.8,0c9.2,0,20.4,11.1,26.7,26.3c5,12.2,7.1,28.4-2,37.3l0,0c-4.7,4.7-28.7,9.1-81,6.3
								c-43.7-2.4-83.9,15.9-89.7,40.7c-0.6,2.6,1,5.2,3.6,5.8c0.4,0.1,0.8,0.1,1.1,0.1c2.2,0,4.2-1.5,4.7-3.8
								c4.6-19.8,41.9-35.3,79.8-33.3c29.6,1.6,65.7,1.8,82.1-5.1C-87.1,179.9-88.4,186.5-92.5,192.5z"/>
						</g>
					</g>
				</g>
			</g>
		</g>
	</g>
</g>
</svg>
