<svg xmlns="http://www.w3.org/2000/svg" viewBox="0 0 353.7 293.78"><defs><style>.cls-1{fill:#1a8bac;}.cls-2{fill:none;stroke:#fff;stroke-linecap:round;stroke-linejoin:round;stroke-width:7px;}</style></defs><g id="レイヤー_4" data-name="レイヤー 4"><path class="cls-1" d="M29.1,112.27,58.58,93.68A14.45,14.45,0,0,1,61.7,93l39.2,1.11a14.64,14.64,0,0,1,5.74.43l4.5,1.26c5.59,1.57,11.43,5.58,12.11,11.24l2.09,8,1,7.68,8.61.14A14.54,14.54,0,0,1,145.83,128L147,129.4a14,14,0,0,1,3,11.35c-.8,4.74-2.08,10.39-3.64,10.91-1.94.66-17.42,5.7-26.09,8.53a14.22,14.22,0,0,0-8.47,7.42l-3.86,8.1a13.63,13.63,0,0,0-1.23,7.8c1.12,8.23,3.28,26,.66,23.46-3.4-3.25-13.47-5.62-22.53-5.46s-23.66-10.43-23.66-10.43l-10.28-7.77c-.31-.19-1.78-1.94-2.11-2.11L30,174.09a14.34,14.34,0,0,1-5.18-4.41c-4.49-6.22-14.59-20.6-13.29-22.65,1.15-1.81,5.12-17.32,7.49-26.81C20.16,115.62,24.56,113.87,29.1,112.27Z"/><path class="cls-2" d="M75.56,30.9A79.73,79.73,0,0,1,89.63,30c1.46,0,2.81.09,4.08.09s2.42.1,3.49.1c60-45.23,115.61-11.45,115.61-11.45,17.47-9.32,46.88-.59,63.77,10.87C318,60.21,310.94,74.39,310.94,88c44.75,19.61,32.72,61.64,28.35,71,7.67,46.88-38.73,45.82-45.24,45.82-9.31,24-31.64,24-41.44,24-17.48,2.14-11.46,33.3-11.46,39.8-.58,7.67-9.32,12-15.82,12-7.09,0-13.1-2.72-14.17-7.67-2.72-33.78-9.81-40.38-19.12-42.52-65.43,14.17-77.46-14.75-84-26.21-33.29.59-48.53-10.38-57.85-24-53.48-8.15-35.43-49.6-30.58-61.06C5,98.55,30.13,64.19,38.86,55A60.66,60.66,0,0,1,66.92,33.13,51.38,51.38,0,0,1,75.56,30.9Zm156.76,65c2-20.09-4.17-26.3-7.47-32.22-6.61-10.39-27.28-9.81-38.15-9.81-8.74,0-35.43-1.65-51.25-3.78-16.21-5.44-12.14-26.4-9.32-36M56.82,135.83c67.07,10,67.66-8.35,68.72-17.09,2.14-30-30.57-26.2-46.39-26.69-12.6.59-24.74,3.26-33.4,7.39-4,2-21.12,13-25.41,19.5m133.84-17.28s44.26-3.88,49.12,20.09a10,10,0,0,1,.29,2.43c-.59,8.74,6.5,25.63-34.36,29.41-14.76,0-47.47.58-55.14,10.87-3.78,6.7-8.06,10.39-5.43,40.87m175.49-90.27s-3.69,10.48-21.64,9.12c-11.17-.87-40.77-3.2-59.21-2.43M311.43,88.36a115.18,115.18,0,0,1-17.86,2c-22.33.58-31.16-10.87-31.16-10.87m77.27,81.63c-23.11,5.25-38.44,6-63,4.57C238,164.08,224.26,169,209,173.39c-31.06,6.51-35.72,33.3-35.72,33.3M88.56,92.15c.78-36.3,18.06-36.3,18.06-36.3"/></g></svg>