<svg id="レイヤー_1" data-name="レイヤー 1" xmlns="http://www.w3.org/2000/svg" viewBox="0 0 360 300"><defs><style>.cls-1{fill:#231815;}.cls-2{fill:none;stroke:#231815;stroke-linecap:round;stroke-linejoin:round;stroke-width:10px;}</style></defs><path class="cls-1" d="M682.19-158c-5.9-14.5-17.5-29.1-31.1-31.9,1.5-13.4-3-27.1-13-39.8-17.1-21.5-47.9-37.2-73.4-37.2a42.83,42.83,0,0,0-18.2,3.6c-10.7-11.2-34.8-12.5-45.5-12.5a161.82,161.82,0,0,0-43.8,6.1c-14.6,4.2-27.4,10.8-34.6,19.8a58.39,58.39,0,0,0-9.3-.8c-33.7,0-60,29.5-71.2,58.7-6.4,16.9-6.9,31.7-1.6,40.1-8.1,12.4-9.4,29.7-2.9,43.5,6.8,14.5,20.7,22.5,38.2,21.7,10,17,28.8,25.6,55.7,25.6,1.3,0,2.6,0,3.9-.1,7.8,19.6,24.5,29.5,49.5,29.5,11.9,0,24.4-2.1,36-4.4a7.88,7.88,0,0,1,7.8,2.4c6.5,6.6,8.9,23.1,8.8,32a19.18,19.18,0,0,0,5.3,13.8,20.71,20.71,0,0,0,14.7,5.8,21.19,21.19,0,0,0,15.4-6.3c3.7-3.9,5.4-9.1,5.1-15-.1-1.3-.2-2.6-.2-3.9-1.1-16.5-1.1-27.4,8.6-28.9,2.2-.3,4.5-.6,6.7-.8,13.6-1.5,28.9-3.2,39-24.1,1.1.1,2.2.1,3.3.1,15.8,0,32-8.1,40.2-20.1,4.5-6.6,8.8-17.3,4.3-31.5C690.29-124.91,688-143.91,682.19-158Zm-11.1,40.8c-4.7,4.7-28.7,9.1-81,6.3-43.7-2.4-83.9,15.9-89.7,40.7a4.82,4.82,0,0,0,3.6,5.8,4.48,4.48,0,0,0,1.1.1,4.8,4.8,0,0,0,4.7-3.8c4.6-19.8,41.9-35.3,79.8-33.3,29.6,1.6,65.7,1.8,82.1-5.1a25.24,25.24,0,0,1-3.9,20.1c-6.4,9.3-19.6,15.9-32.2,15.9a33.13,33.13,0,0,1-5.5-.4,4.85,4.85,0,0,0-5.3,2.9c-7.9,18.9-18.9,20.1-32.7,21.6-2.4.3-4.7.5-7.1.9-19.3,2.9-17.9,23.8-16.9,39.1.1,1.3.2,2.6.2,3.8.2,3.2-.6,5.8-2.5,7.7a11.38,11.38,0,0,1-8.3,3.3,11.34,11.34,0,0,1-7.8-2.9,9.3,9.3,0,0,1-2.5-6.9c0-1.1,0-27.2-11.6-38.9a17.81,17.81,0,0,0-12.8-5.5,17,17,0,0,0-3.8.4c-11.2,2.2-23.1,4.2-34.2,4.2-22.4,0-35.6-8.3-41.5-26.1l-.1-.2c-2.8-13.8-4.8-23.8-.9-31.1,7.7-14.7,26-14.7,49.1-14.7,29.3,0,45.8-8.8,49.1-26.1a24.57,24.57,0,0,0,.4-5.4c2.5-3.6,7.2-3.6,17.4-2.7,2.1.2,4.2.4,6.5.5,4.6.3,9.3.8,13.8,1.2,16.7,1.8,32.6,3.4,40.3-6.1a4.79,4.79,0,0,0-.7-6.8,4.79,4.79,0,0,0-6.8.7c-4.4,5.4-18.3,4-31.8,2.6-4.7-.5-9.5-1-14.3-1.3-2.1-.1-4.2-.3-6.2-.5-7.3-.6-14.7-1.3-20.5,1.7a33.51,33.51,0,0,0-6.7-10.5c-9.5-10.1-24.9-14.3-43.4-11.9a4.84,4.84,0,0,0-4.2,5.4,4.84,4.84,0,0,0,5.4,4.2c15.3-2,27.7,1.2,35.1,9a22.54,22.54,0,0,1,6.2,13.6,16.22,16.22,0,0,1-.2,4.5c-2.2,12.1-15.5,18.2-39.5,18.2-24.3,0-47.2,0-57.7,19.9-4.8,9.2-3.5,19.7-1,32.5h-1.4c-24.8,0-40.8-7.6-48.7-23.1a4.78,4.78,0,0,0-4.8-2.6c-14.8,1.5-26.2-4.3-31.7-15.9-5.6-11.8-3.9-26.7,4-36.4.1-.1.1-.2.2-.3v-.1c9.9-14.1,21.8-22.6,36.5-25.9a150.8,150.8,0,0,1,30.5-3.3c10.4-.1,19.6.9,24,2.9s9.5,9.7,9.9,17.3c.2,5.9-2.4,10.4-7.8,13.6-16,9.3-38.9,5.5-51.1,3.5l-2.7-.4a4.79,4.79,0,0,0-5.5,4,5,5,0,0,0,4,5.6l2.6.4a157.88,157.88,0,0,0,26.1,2.6c10.5,0,21.8-1.7,31.5-7.3,8.6-5,13-12.9,12.6-22.4-.4-10.5-7.2-21.8-15.4-25.6-5.2-2.5-13.9-3.7-23.6-3.9,0-9,3.3-17.7,6.8-21.9,1.9-2.3,3.2-2.6,3.5-2.6a4.83,4.83,0,0,0,4.5-5.2,4.83,4.83,0,0,0-5.2-4.5c-3.7.3-7.2,2.4-10.3,6.1-5.6,6.7-9,17.8-9,28.2a161.46,161.46,0,0,0-27.5,3.4c-14.9,3.4-27.4,11.2-37.8,23.9-1.4-5.8-.7-15.3,4-27.8,10.3-26.3,33.4-52.6,62.5-52.6a54.3,54.3,0,0,1,10.5,1.1,4.87,4.87,0,0,0,5.1-2.1c3.8-6,11.3-11,20.6-14.8-2.4,7.2-3.9,16.4.1,24.2,3.7,7.4,11.3,11.8,22.5,13.2a262.17,262.17,0,0,0,39.4,1.9,179,179,0,0,1,21.7.6c6.7.6,15.9,2.8,21.7,9.8,4.6,5.6,6.4,13.4,5.5,23.3a4.91,4.91,0,0,0,4.4,5.3h.5a4.8,4.8,0,0,0,4.8-4.4c1.2-12.6-1.4-22.8-7.7-30.4s-16-12.2-28.2-13.3a196.77,196.77,0,0,0-22.7-.6,255.53,255.53,0,0,1-38.1-1.8c-7.8-1-12.8-3.6-15-7.9-3.2-6.5-.3-16.5,3.6-24a156,156,0,0,1,39.3-5.2c20.4,0,36,4.4,39.9,11.3a5.15,5.15,0,0,0,3.1,2.3,5,5,0,0,0,3.8-.6c4.3-2.8,10-4.2,16.9-4.2,22.4,0,50.6,14.4,65.8,33.5,5.9,7.8,12.5,19.8,10.5,33.8-6.5,2.9-29.8,2-38.6-5.8a4.9,4.9,0,0,0-6.9.4,4.77,4.77,0,0,0,.4,6.8c7.4,6.6,21.7,9.7,33.6,9.7,1.5,0,3-.1,4.4-.2a37.84,37.84,0,0,0,10.1-1.9,5.7,5.7,0,0,0,1.3.1h.8c9.2,0,20.4,11.1,26.7,26.3C678.09-142.31,680.19-126.11,671.09-117.21Z"/><path class="cls-2" d="M73,33.5a80.44,80.44,0,0,1,14.46-.88c1.46,0,2.87.08,4.2.13l3.64.15c61.8-46.6,119.1-11.8,119.1-11.8,18-9.6,48.3-.6,65.7,11.2,42.7,31.5,35.4,46.1,35.4,60.1,46.1,20.2,33.7,63.5,29.2,73.1,7.9,48.3-39.9,47.2-46.6,47.2-9.6,24.7-32.6,24.7-42.7,24.7-18,2.2-11.8,34.3-11.8,41-.6,7.9-9.6,12.4-16.3,12.4-7.3,0-13.5-2.8-14.6-7.9-2.8-34.8-10.1-41.6-19.7-43.8-67.4,14.6-79.8-15.2-86.5-27-34.3.6-50-10.7-59.6-24.7-55.1-8.4-36.5-51.1-31.5-62.9C.3,103.2,26.2,67.8,35.2,58.3A62.53,62.53,0,0,1,64.1,35.8,53.36,53.36,0,0,1,73,33.5Zm161.5,67c2.1-20.7-4.3-27.1-7.7-33.2-6.8-10.7-28.1-10.1-39.3-10.1-9,0-36.5-1.7-52.8-3.9-16.7-5.6-12.5-27.2-9.6-37.1M53.7,141.6c69.1,10.3,69.7-8.6,70.8-17.6C126.7,93.1,93,97,76.7,96.5c-23-1.1-44.4,14.6-51.1,20.8A41.1,41.1,0,0,1,15,123.9m139-17.5s45.6-4,50.6,20.7a10.07,10.07,0,0,1,.3,2.5c-.6,9,6.7,26.4-35.4,30.3-15.2,0-48.9.6-56.8,11.2-3.9,6.9-8.3,10.7-5.6,42.1m180.8-93s-3.8,10.8-22.3,9.4c-11.5-.9-42-3.3-61-2.5M316,92.7a118.42,118.42,0,0,1-18.4,2.1c-23,.6-32.1-11.2-32.1-11.2m79.6,84.1c-23.8,5.4-39.6,6.2-64.9,4.7-39.9-1.7-54,3.4-69.7,7.9-32,6.7-36.8,34.3-36.8,34.3M86.4,96.6C87.2,59.2,105,59.2,105,59.2"/></svg>