<svg xmlns="http://www.w3.org/2000/svg" viewBox="0 0 400 15"><defs><style>.cls-1{fill:none;stroke:#333;stroke-miterlimit:10;stroke-width:4px;}.cls-2{fill:#eb593c;}.cls-3{fill:#333;}.cls-4{fill:#fff;}</style></defs><g id="レイヤー_4" data-name="レイヤー 4"><line class="cls-1" x1="2.18" y1="7.46" x2="397.82" y2="7.46"/><path class="cls-2" d="M7.26,13.55a6.09,6.09,0,1,1,6.09-6.09A6.1,6.1,0,0,1,7.26,13.55Z"/><path class="cls-3" d="M7.26,2.37A5.09,5.09,0,1,1,2.18,7.46,5.09,5.09,0,0,1,7.26,2.37m0-2a7.09,7.09,0,1,0,7.09,7.09A7.09,7.09,0,0,0,7.26.37Z"/><path class="cls-4" d="M392.74,13.55a6.09,6.09,0,1,1,6.08-6.09A6.1,6.1,0,0,1,392.74,13.55Z"/><path class="cls-3" d="M392.74,2.37a5.09,5.09,0,1,1-5.09,5.09,5.08,5.08,0,0,1,5.09-5.09m0-2a7.09,7.09,0,1,0,7.08,7.09A7.1,7.1,0,0,0,392.74.37Z"/><path class="cls-4" d="M298.15,13.55a6.09,6.09,0,1,1,6.09-6.09A6.1,6.1,0,0,1,298.15,13.55Z"/><path class="cls-3" d="M298.15,2.37a5.09,5.09,0,1,1-5.09,5.09,5.09,5.09,0,0,1,5.09-5.09m0-2a7.09,7.09,0,1,0,7.09,7.09A7.1,7.1,0,0,0,298.15.37Z"/><path class="cls-4" d="M200,13.55a6.09,6.09,0,1,1,6.09-6.09A6.1,6.1,0,0,1,200,13.55Z"/><path class="cls-3" d="M200,2.37a5.09,5.09,0,1,1-5.09,5.09A5.09,5.09,0,0,1,200,2.37m0-2a7.09,7.09,0,1,0,7.09,7.09A7.1,7.1,0,0,0,200,.37Z"/><path class="cls-4" d="M103.89,13.55A6.09,6.09,0,1,1,110,7.46,6.1,6.1,0,0,1,103.89,13.55Z"/><path class="cls-3" d="M103.89,2.37A5.09,5.09,0,1,1,98.8,7.46a5.08,5.08,0,0,1,5.09-5.09m0-2A7.09,7.09,0,1,0,111,7.46,7.1,7.1,0,0,0,103.89.37Z"/></g></svg>